<svg width="192" height="193" viewBox="0 0 192 193" fill="none" xmlns="http://www.w3.org/2000/svg">
<path fill-rule="evenodd" clip-rule="evenodd" d="M152 96.4766C152 127.405 126.928 152.477 96 152.477C65.0721 152.477 40 127.405 40 96.4766C40 65.5486 65.0721 40.4766 96 40.4766C126.928 40.4766 152 65.5486 152 96.4766ZM91.4958 91.9704H75.6157C73.128 91.9704 71.1113 93.9871 71.1113 96.4748C71.1113 98.9625 73.128 100.979 75.6157 100.979H91.4958L91.4958 116.859C91.4958 119.347 93.5125 121.364 96.0002 121.364C98.4879 121.364 100.505 119.347 100.505 116.859V100.979L116.385 100.979C118.872 100.979 120.889 98.9625 120.889 96.4748C120.889 93.9871 118.872 91.9704 116.385 91.9704L100.505 91.9704V76.0903C100.505 73.6026 98.4879 71.5859 96.0002 71.5859C93.5125 71.5859 91.4958 73.6026 91.4958 76.0903L91.4958 91.9704Z" fill="#5AB0FF"/>
</svg>
