<svg width="192" height="193" viewBox="0 0 192 193" fill="none" xmlns="http://www.w3.org/2000/svg">
<path d="M96 89.6883L135.806 49.8825C137.68 48.0079 140.72 48.0079 142.594 49.8825C144.469 51.757 144.469 54.7962 142.594 56.6707L102.788 96.4766L142.594 136.282C144.469 138.157 144.469 141.196 142.594 143.071C140.72 144.945 137.68 144.945 135.806 143.071L96 103.265L56.1941 143.071C54.3196 144.945 51.2804 144.945 49.4059 143.071C47.5314 141.196 47.5314 138.157 49.4059 136.282L89.2118 96.4766L49.4059 56.6707C47.5314 54.7962 47.5314 51.757 49.4059 49.8825C51.2804 48.0079 54.3196 48.0079 56.1941 49.8825L96 89.6883Z" fill="white" fill-opacity="0.45"/>
</svg>
