<svg width="192" height="193" viewBox="0 0 192 193" fill="none" xmlns="http://www.w3.org/2000/svg">
<path fill-rule="evenodd" clip-rule="evenodd" d="M160 96.4766C160 131.823 131.346 160.477 96 160.477C60.6538 160.477 32 131.823 32 96.4766C32 61.1303 60.6538 32.4766 96 32.4766C131.346 32.4766 160 61.1303 160 96.4766ZM90.8513 91.3278H72.7026C69.8595 91.3278 67.5547 93.6326 67.5547 96.4757C67.5547 99.3188 69.8595 101.624 72.7026 101.624H90.8513L90.8513 119.772C90.8513 122.615 93.156 124.92 95.9991 124.92C98.8422 124.92 101.147 122.615 101.147 119.772V101.624L119.296 101.624C122.139 101.624 124.444 99.3188 124.444 96.4757C124.444 93.6326 122.139 91.3278 119.296 91.3278L101.147 91.3278V73.1791C101.147 70.336 98.8422 68.0312 95.9991 68.0312C93.156 68.0312 90.8513 70.336 90.8513 73.1791L90.8513 91.3278Z" fill="#5AB0FF"/>
</svg>
