<svg width="192" height="193" viewBox="0 0 192 193" fill="none" xmlns="http://www.w3.org/2000/svg">
<path fill-rule="evenodd" clip-rule="evenodd" d="M138.333 60.1432V142.088C138.333 151.139 130.996 158.477 121.944 158.477H62.9444C53.8931 158.477 46.5556 151.139 46.5556 142.088V60.1432H43.2778C41.4675 60.1432 40 58.6757 40 56.8655C40 55.0552 41.4675 53.5877 43.2778 53.5877H72.7778V50.3099C72.7778 44.8791 77.1803 40.4766 82.6111 40.4766H102.278C107.709 40.4766 112.111 44.8791 112.111 50.3099V53.5877H141.611C143.421 53.5877 144.889 55.0552 144.889 56.8655C144.889 58.6757 143.421 60.1432 141.611 60.1432H138.333ZM53.1113 60.1445V142.089C53.1113 147.52 57.5139 151.922 62.9447 151.922H121.945C127.375 151.922 131.778 147.52 131.778 142.089V60.1445H53.1113ZM105.556 50.309V53.5868H79.334V50.309C79.334 48.4988 80.8015 47.0312 82.6118 47.0312H102.278C104.089 47.0312 105.556 48.4988 105.556 50.309ZM105.555 83.0864C105.555 81.2761 107.022 79.8086 108.832 79.8086C110.643 79.8086 112.11 81.2761 112.11 83.0864V128.975C112.11 130.786 110.643 132.253 108.832 132.253C107.022 132.253 105.555 130.786 105.555 128.975V83.0864ZM76.0551 79.8086C74.2449 79.8086 72.7773 81.2761 72.7773 83.0864V128.975C72.7773 130.786 74.2449 132.253 76.0551 132.253C77.8654 132.253 79.3329 130.786 79.3329 128.975V83.0864C79.3329 81.2761 77.8654 79.8086 76.0551 79.8086Z" fill="white" fill-opacity="0.6"/>
</svg>
