<svg width="144" height="145" viewBox="0 0 144 145" fill="none" xmlns="http://www.w3.org/2000/svg">
<path fill-rule="evenodd" clip-rule="evenodd" d="M40 30.8766H104C109.302 30.8766 113.6 35.1746 113.6 40.4766V104.477C113.6 109.778 109.302 114.077 104 114.077H40C34.6981 114.077 30.4 109.778 30.4 104.477V40.4766C30.4 35.1746 34.6981 30.8766 40 30.8766ZM24 40.4766C24 31.64 31.1634 24.4766 40 24.4766H104C112.837 24.4766 120 31.64 120 40.4766V104.477C120 113.313 112.837 120.477 104 120.477H40C31.1634 120.477 24 113.313 24 104.477V40.4766ZM73.5217 53.1598C73.0427 51.6857 70.9573 51.6857 70.4783 53.1598L66.9709 63.9546C66.7567 64.6138 66.1424 65.0602 65.4492 65.0602H54.0989C52.549 65.0602 51.9045 67.0435 53.1585 67.9546L62.341 74.6261C62.9018 75.0335 63.1365 75.7557 62.9223 76.415L59.4148 87.2097C58.9359 88.6838 60.6231 89.9096 61.877 88.9985L71.0595 82.327C71.6203 81.9196 72.3797 81.9196 72.9405 82.327L82.123 88.9985C83.3769 89.9096 85.0641 88.6838 84.5852 87.2097L81.0777 76.415C80.8635 75.7557 81.0982 75.0335 81.659 74.6261L90.8415 67.9546C92.0955 67.0435 91.451 65.0602 89.9011 65.0602H78.5508C77.8576 65.0602 77.2433 64.6138 77.0291 63.9546L73.5217 53.1598Z" fill="white" fill-opacity="0.5"/>
</svg>
