<svg width="3040" height="385" viewBox="0 0 3040 385" fill="none" xmlns="http://www.w3.org/2000/svg">
<g clip-path="url(#clip0)">
<rect y="0.779297" width="4800" height="960" fill="#2E2E2E"/>
<g clip-path="url(#clip1)">
<rect x="256" y="-79.5254" width="4800" height="960" fill="#252525"/>
<path d="M4936.23 -199.526C5560.98 -199.526 6536 -199.526 6536 -199.526L6536 1058.18C6405.97 1130.76 6271.33 1193.86 6129.56 1240.26C5846.02 1333.07 5560.02 1350.41 5273.49 1353.98C5208.99 1354.78 5144.48 1354.89 5079.98 1355C4857.62 1355.36 4635.23 1355.73 4412.78 1384.63C4131.43 1421.18 3884.87 1521.14 3657.85 1672.47C3657.85 1672.47 4436.99 531.536 4936.23 -199.526Z" fill="url(#paint0_radial)"/>
<path d="M4936.23 -199.526C5560.98 -199.526 6536 -199.526 6536 -199.526L6536 1058.18C6405.97 1130.76 6271.33 1193.86 6129.56 1240.26C5846.02 1333.07 5560.02 1350.41 5273.49 1353.98C5208.99 1354.78 5144.48 1354.89 5079.98 1355C4857.62 1355.36 4635.23 1355.73 4412.78 1384.63C4131.43 1421.18 3884.87 1521.14 3657.85 1672.47C3657.85 1672.47 4436.99 531.536 4936.23 -199.526Z" fill="url(#paint1_radial)"/>
<path d="M4931.62 -199.526L4936.23 -199.526C4436.99 531.536 3657.85 1672.47 3657.85 1672.47L1872 1672.48C2006.89 1361.02 2215.14 1115.16 2476.67 902.148C2687.94 730.081 2932.49 622.521 3186.84 541.552C3356.71 487.477 3531.39 445.144 3703.5 403.431C3788.87 382.742 3873.61 362.206 3956.82 340.466C4300.58 250.647 4683.12 79.4468 4931.62 -199.526Z" fill="url(#paint2_radial)"/>
<path d="M4931.62 -199.526L4936.23 -199.526C4436.99 531.536 3657.85 1672.47 3657.85 1672.47L1872 1672.48C2006.89 1361.02 2215.14 1115.16 2476.67 902.148C2687.94 730.081 2932.49 622.521 3186.84 541.552C3356.71 487.477 3531.39 445.144 3703.5 403.431C3788.87 382.742 3873.61 362.206 3956.82 340.466C4300.58 250.647 4683.12 79.4468 4931.62 -199.526Z" fill="url(#paint3_radial)"/>
<path d="M1309.52 1008.47C863.729 1008.47 168 1008.47 168 1008.47V148.507C260.783 98.8766 356.855 55.7331 458.014 24.0049C660.335 -39.4529 864.412 -51.3108 1068.87 -53.7507C1114.89 -54.3 1160.92 -54.3729 1206.95 -54.4459C1365.61 -54.6973 1524.3 -54.9489 1683.02 -74.7067C1883.78 -99.6966 2059.71 -168.051 2221.7 -271.525C2221.7 -271.525 1665.75 508.604 1309.52 1008.47Z" fill="url(#paint4_radial)"/>
<path d="M1309.52 1008.47C863.729 1008.47 168 1008.47 168 1008.47V148.507C260.783 98.8766 356.855 55.7331 458.014 24.0049C660.335 -39.4529 864.412 -51.3108 1068.87 -53.7507C1114.89 -54.3 1160.92 -54.3729 1206.95 -54.4459C1365.61 -54.6973 1524.3 -54.9489 1683.02 -74.7067C1883.78 -99.6966 2059.71 -168.051 2221.7 -271.525C2221.7 -271.525 1665.75 508.604 1309.52 1008.47Z" fill="url(#paint5_radial)"/>
<path d="M1309.52 1008.47C863.729 1008.47 168 1008.47 168 1008.47V148.507C260.783 98.8766 356.855 55.7331 458.014 24.0049C660.335 -39.4529 864.412 -51.3108 1068.87 -53.7507C1114.89 -54.3 1160.92 -54.3729 1206.95 -54.4459C1365.61 -54.6973 1524.3 -54.9489 1683.02 -74.7067C1883.78 -99.6966 2059.71 -168.051 2221.7 -271.525C2221.7 -271.525 1665.75 508.604 1309.52 1008.47Z" fill="url(#paint6_linear)"/>
<path d="M1312.81 1008.47H1309.52C1665.75 508.604 2221.7 -271.525 2221.7 -271.525H3496C3399.75 -58.5618 3251.15 109.545 3064.54 255.194C2913.79 372.846 2739.28 446.392 2557.79 501.755C2436.59 538.729 2311.94 567.675 2189.13 596.197C2128.21 610.343 2067.75 624.385 2008.38 639.25C1763.08 700.664 1490.13 817.724 1312.81 1008.47Z" fill="url(#paint7_radial)"/>
<path d="M1312.81 1008.47H1309.52C1665.75 508.604 2221.7 -271.525 2221.7 -271.525H3496C3399.75 -58.5618 3251.15 109.545 3064.54 255.194C2913.79 372.846 2739.28 446.392 2557.79 501.755C2436.59 538.729 2311.94 567.675 2189.13 596.197C2128.21 610.343 2067.75 624.385 2008.38 639.25C1763.08 700.664 1490.13 817.724 1312.81 1008.47Z" fill="url(#paint8_radial)"/>
<path d="M1312.81 1008.47H1309.52C1665.75 508.604 2221.7 -271.525 2221.7 -271.525H3496C3399.75 -58.5618 3251.15 109.545 3064.54 255.194C2913.79 372.846 2739.28 446.392 2557.79 501.755C2436.59 538.729 2311.94 567.675 2189.13 596.197C2128.21 610.343 2067.75 624.385 2008.38 639.25C1763.08 700.664 1490.13 817.724 1312.81 1008.47Z" fill="url(#paint9_linear)"/>
<path d="M943.949 976.475C575.314 976.475 0 976.475 0 976.475V267.001C76.7246 226.056 156.169 190.463 239.819 164.287C407.123 111.934 575.88 102.152 744.948 100.139C783.006 99.6856 821.066 99.6254 859.128 99.5652C990.328 99.3577 1121.55 99.1502 1252.81 82.85C1418.82 62.2334 1564.3 5.84096 1698.26 -79.5254C1698.26 -79.5254 1238.52 564.081 943.949 976.475Z" fill="url(#paint10_radial)"/>
<path d="M943.949 976.475C575.314 976.475 0 976.475 0 976.475V267.001C76.7246 226.056 156.169 190.463 239.819 164.287C407.123 111.934 575.88 102.152 744.948 100.139C783.006 99.6856 821.066 99.6254 859.128 99.5652C990.328 99.3577 1121.55 99.1502 1252.81 82.85C1418.82 62.2334 1564.3 5.84096 1698.26 -79.5254C1698.26 -79.5254 1238.52 564.081 943.949 976.475Z" fill="url(#paint11_radial)"/>
<path d="M946.666 976.475H943.949C1238.52 564.081 1698.26 -79.5254 1698.26 -79.5254H2752C2672.41 96.1696 2549.53 234.858 2395.21 355.018C2270.56 452.081 2126.25 512.756 1976.18 558.431C1875.95 588.935 1772.88 612.815 1671.32 636.345C1620.95 648.016 1570.95 659.6 1521.85 671.864C1319.01 722.531 1093.3 819.106 946.666 976.475Z" fill="url(#paint12_radial)"/>
<path d="M946.666 976.475H943.949C1238.52 564.081 1698.26 -79.5254 1698.26 -79.5254H2752C2672.41 96.1696 2549.53 234.858 2395.21 355.018C2270.56 452.081 2126.25 512.756 1976.18 558.431C1875.95 588.935 1772.88 612.815 1671.32 636.345C1620.95 648.016 1570.95 659.6 1521.85 671.864C1319.01 722.531 1093.3 819.106 946.666 976.475Z" fill="url(#paint13_radial)"/>
<path d="M319.568 1032.47C-117.651 1032.47 -800 1032.47 -800 1032.47V188.631C-709.001 139.932 -614.776 97.597 -515.563 66.4636C-317.133 4.19571 -116.98 -7.43986 83.5425 -9.83402C128.681 -10.373 173.822 -10.4445 218.966 -10.5161C374.575 -10.7629 530.216 -11.0097 685.889 -30.3971C882.787 -54.9184 1055.33 -121.991 1214.21 -223.525C1214.21 -223.525 668.947 541.976 319.568 1032.47Z" fill="url(#paint14_radial)"/>
<path d="M319.568 1032.47C-117.651 1032.47 -800 1032.47 -800 1032.47V188.631C-709.001 139.932 -614.776 97.597 -515.563 66.4636C-317.133 4.19571 -116.98 -7.43986 83.5425 -9.83402C128.681 -10.373 173.822 -10.4445 218.966 -10.5161C374.575 -10.7629 530.216 -11.0097 685.889 -30.3971C882.787 -54.9184 1055.33 -121.991 1214.21 -223.525C1214.21 -223.525 668.947 541.976 319.568 1032.47Z" fill="url(#paint15_radial)"/>
<path d="M322.79 1032.47H319.568C668.947 541.976 1214.21 -223.525 1214.21 -223.525H2464C2369.6 -14.5549 2223.86 150.4 2040.83 293.318C1892.98 408.764 1721.84 480.931 1543.84 535.256C1424.96 571.537 1302.71 599.94 1182.26 627.927C1122.52 641.808 1063.22 655.586 1004.99 670.173C764.407 730.436 496.7 845.301 322.79 1032.47Z" fill="url(#paint16_radial)"/>
<path d="M322.79 1032.47H319.568C668.947 541.976 1214.21 -223.525 1214.21 -223.525H2464C2369.6 -14.5549 2223.86 150.4 2040.83 293.318C1892.98 408.764 1721.84 480.931 1543.84 535.256C1424.96 571.537 1302.71 599.94 1182.26 627.927C1122.52 641.808 1063.22 655.586 1004.99 670.173C764.407 730.436 496.7 845.301 322.79 1032.47Z" fill="url(#paint17_radial)"/>
<circle cx="164" cy="252.475" r="20" fill="white"/>
<circle cx="1964" cy="244.475" r="12" fill="white"/>
<circle cx="532" cy="324.475" r="12" fill="white"/>
<circle cx="1860" cy="292.475" r="20" fill="white"/>
<circle cx="2076" cy="44.4746" r="12" fill="white"/>
<circle cx="2196" cy="76.4746" r="12" fill="white"/>
<g style="mix-blend-mode:overlay">
<path d="M2641.84 981.328C2661.37 924.516 2701.43 880.905 2742.59 838.043C2823.93 753.341 2916.04 678.168 3013.11 612.294C3273.83 435.38 3563.85 316.075 3846.7 180.946C3974.99 119.662 4097.8 49.8134 4207.16 -41.8172C4370.24 -178.475 4511.62 -341.653 4644.1 -507.494C4684.51 -558.072 4820.81 -689.495 4777.68 -764.959" stroke="white" stroke-width="8" stroke-linecap="round" stroke-linejoin="round"/>
</g>
<g style="mix-blend-mode:overlay">
<path d="M2923.93 927.596C2950.86 834.592 3048.79 776.589 3132.89 737.296C3281.56 667.834 3435.39 625.625 3597.07 601.474C3753.72 578.074 3914.13 567.763 4072.08 558.19C4219.45 549.258 4357.8 533.757 4493.73 471.622C4565.82 438.663 4635.14 403.979 4694.85 350.725C4740.14 310.327 4781.78 265.285 4824.7 222.365" stroke="white" stroke-width="8" stroke-linecap="round" stroke-linejoin="round"/>
</g>
<g style="mix-blend-mode:lighten">
<path d="M1997.06 934.31C2118.82 801.673 2282.58 725.658 2447.81 660.054C2705.86 557.593 2996.69 525.669 3270.21 491.768C3657.58 443.754 4054.87 417.17 4413.87 249.229C4571.55 175.471 4722.87 61.3583 4817.98 -86.5957" stroke="white" stroke-width="8" stroke-linecap="round" stroke-linejoin="round"/>
</g>
<g style="mix-blend-mode:soft-light">
<path d="M-24 1041.65C-20.7805 874.242 187.518 762.684 316.302 700.605C505.657 609.329 727.134 558.565 933.473 526.723C1157.5 492.15 1386.87 497.37 1609.6 454.334C1869.69 404.079 2113.45 275.737 2322.29 114.778C2414.95 43.3613 2498.07 -41.6732 2572.3 -131.866C2637.08 -210.585 2683.62 -275.031 2696.18 -375.525" stroke="white" stroke-width="8" stroke-linecap="round" stroke-linejoin="round"/>
</g>
<g style="mix-blend-mode:color-dodge">
<path d="M496 872.475C500.327 647.555 780.287 497.675 953.376 414.271C1207.88 291.641 1505.55 223.439 1782.87 180.658C2083.97 134.21 2392.25 141.221 2691.61 83.4025C3041.18 15.8839 3368.8 -156.545 3649.49 -372.795C3774.03 -468.745 3885.73 -582.99 3985.5 -704.166C4072.57 -809.926 4135.12 -896.51 4152 -1031.53" stroke="white" stroke-width="8" stroke-linecap="round" stroke-linejoin="round"/>
</g>
<g style="mix-blend-mode:overlay" opacity="0.8">
<path d="M69.4258 578.338C114.413 468.804 221.117 406.795 323.16 357.441C515.851 264.243 732.022 242.223 932.868 172.364C1139.39 100.531 1306.95 0.766968 1459.74 -154.878C1540.27 -236.92 1596.66 -326.854 1647.8 -429.135" stroke="white" stroke-width="8" stroke-linecap="round" stroke-linejoin="round"/>
</g>
</g>
</g>
<defs>
<radialGradient id="paint0_radial" cx="0" cy="0" r="1" gradientUnits="userSpaceOnUse" gradientTransform="translate(2199.8 1439.07) rotate(-24.8191) scale(2359.95 6326.55)">
<stop stop-color="#5256CC"/>
<stop offset="1" stop-color="#5256AA" stop-opacity="0"/>
</radialGradient>
<radialGradient id="paint1_radial" cx="0" cy="0" r="1" gradientUnits="userSpaceOnUse" gradientTransform="translate(6401.66 1259.67) rotate(-166.89) scale(4092.08 11087.4)">
<stop stop-color="#DFC4BE"/>
<stop offset="1" stop-color="#F9C8C8" stop-opacity="0"/>
</radialGradient>
<radialGradient id="paint2_radial" cx="0" cy="0" r="1" gradientUnits="userSpaceOnUse" gradientTransform="translate(2199.8 1439.07) rotate(-24.8191) scale(2359.95 6326.55)">
<stop stop-color="#5256CC"/>
<stop offset="1" stop-color="#5256AA" stop-opacity="0"/>
</radialGradient>
<radialGradient id="paint3_radial" cx="0" cy="0" r="1" gradientUnits="userSpaceOnUse" gradientTransform="translate(6401.66 1259.67) rotate(-166.89) scale(4092.08 11087.4)">
<stop stop-color="#DFC4BE"/>
<stop offset="1" stop-color="#F9C8C8" stop-opacity="0"/>
</radialGradient>
<radialGradient id="paint4_radial" cx="0" cy="0" r="1" gradientUnits="userSpaceOnUse" gradientTransform="translate(3262.1 -111.931) rotate(156.099) scale(1671.77 4357.34)">
<stop stop-color="#1B3DF1"/>
<stop offset="1" stop-color="#5358CB" stop-opacity="0.28"/>
</radialGradient>
<radialGradient id="paint5_radial" cx="0" cy="0" r="1" gradientUnits="userSpaceOnUse" gradientTransform="translate(263.858 10.7366) rotate(12.5808) scale(2913.76 7597.11)">
<stop/>
<stop offset="1" stop-color="#F9C8C8" stop-opacity="0"/>
</radialGradient>
<linearGradient id="paint6_linear" x1="1708" y1="772.475" x2="1832" y2="1008.47" gradientUnits="userSpaceOnUse">
<stop stop-color="#1E1E1E"/>
<stop offset="0.791373" stop-color="#242424" stop-opacity="0.69"/>
</linearGradient>
<radialGradient id="paint7_radial" cx="0" cy="0" r="1" gradientUnits="userSpaceOnUse" gradientTransform="translate(3262.1 -111.931) rotate(156.099) scale(1671.77 4357.34)">
<stop stop-color="#1B3DF1"/>
<stop offset="1" stop-color="#5358CB" stop-opacity="0.28"/>
</radialGradient>
<radialGradient id="paint8_radial" cx="0" cy="0" r="1" gradientUnits="userSpaceOnUse" gradientTransform="translate(263.858 10.7366) rotate(12.5808) scale(2913.76 7597.11)">
<stop/>
<stop offset="1" stop-color="#F9C8C8" stop-opacity="0"/>
</radialGradient>
<linearGradient id="paint9_linear" x1="1708" y1="772.475" x2="1832" y2="1008.47" gradientUnits="userSpaceOnUse">
<stop stop-color="#1E1E1E"/>
<stop offset="0.791373" stop-color="#242424" stop-opacity="0.69"/>
</linearGradient>
<radialGradient id="paint10_radial" cx="0" cy="0" r="1" gradientUnits="userSpaceOnUse" gradientTransform="translate(2558.58 52.1403) rotate(156.148) scale(1381.9 3596.18)">
<stop stop-color="#5256CC"/>
<stop offset="1" stop-color="#5256AA" stop-opacity="0"/>
</radialGradient>
<radialGradient id="paint11_radial" cx="0" cy="0" r="1" gradientUnits="userSpaceOnUse" gradientTransform="translate(79.2675 153.341) rotate(12.5525) scale(2409.19 6268.31)">
<stop stop-color="#DFC4BE"/>
<stop offset="1" stop-color="#F9C8C8" stop-opacity="0"/>
</radialGradient>
<radialGradient id="paint12_radial" cx="0" cy="0" r="1" gradientUnits="userSpaceOnUse" gradientTransform="translate(2558.58 52.1403) rotate(156.148) scale(1381.9 3596.18)">
<stop stop-color="#5256CC"/>
<stop offset="1" stop-color="#5256AA" stop-opacity="0"/>
</radialGradient>
<radialGradient id="paint13_radial" cx="0" cy="0" r="1" gradientUnits="userSpaceOnUse" gradientTransform="translate(79.2675 153.341) rotate(12.5525) scale(2409.19 6268.31)">
<stop stop-color="#DFC4BE"/>
<stop offset="1" stop-color="#F9C8C8" stop-opacity="0"/>
</radialGradient>
<radialGradient id="paint14_radial" cx="0" cy="0" r="1" gradientUnits="userSpaceOnUse" gradientTransform="translate(2234.59 -66.923) rotate(156.088) scale(1639.75 4275.3)">
<stop stop-color="#5256CC"/>
<stop offset="1" stop-color="#5256AA" stop-opacity="0"/>
</radialGradient>
<radialGradient id="paint15_radial" cx="0" cy="0" r="1" gradientUnits="userSpaceOnUse" gradientTransform="translate(-705.985 53.4442) rotate(12.5868) scale(2857.79 7454.49)">
<stop stop-color="#DFC4BE"/>
<stop offset="1" stop-color="#F9C8C8" stop-opacity="0"/>
</radialGradient>
<radialGradient id="paint16_radial" cx="0" cy="0" r="1" gradientUnits="userSpaceOnUse" gradientTransform="translate(2234.59 -66.923) rotate(156.088) scale(1639.75 4275.3)">
<stop stop-color="#5256CC"/>
<stop offset="1" stop-color="#5256AA" stop-opacity="0"/>
</radialGradient>
<radialGradient id="paint17_radial" cx="0" cy="0" r="1" gradientUnits="userSpaceOnUse" gradientTransform="translate(-705.985 53.4442) rotate(12.5868) scale(2857.79 7454.49)">
<stop stop-color="#DFC4BE"/>
<stop offset="1" stop-color="#F9C8C8" stop-opacity="0"/>
</radialGradient>
<clipPath id="clip0">
<rect width="3040" height="384" fill="white" transform="translate(0 0.474609)"/>
</clipPath>
<clipPath id="clip1">
<rect width="4800" height="1072" fill="white" transform="translate(0 -135.525)"/>
</clipPath>
</defs>
</svg>
