<svg width="3360" height="1601" viewBox="0 0 3360 1601" fill="none" xmlns="http://www.w3.org/2000/svg">
<g clip-path="url(#clip0)">
<path fill-rule="evenodd" clip-rule="evenodd" d="M395.767 2018.89L396.316 2018.88C493.72 2016.35 794.967 2010.6 1081.43 2025.73C1224.69 2033.3 1363.97 2046.08 1472.11 2067.03C1526.21 2077.51 1572.18 2089.97 1606.85 2104.68C1641.92 2119.56 1663.73 2136.05 1672.05 2153.53C1674 2157.65 1677.92 2158.76 1680.94 2158.46V2189.79C1680.9 2190.65 1679.67 2191.04 1679.29 2190.25C1679.21 2190.09 1679.13 2189.92 1679.04 2189.75C1678.08 2187.84 1676.99 2185.96 1675.77 2184.09C1674.89 2182.76 1673.95 2181.44 1672.94 2180.14C1555.84 2028.57 548.197 2045.93 350.593 2050.88L343.394 2050.11C328.194 2048.47 316.938 2038.98 316.938 2027.81V546.186C316.938 534.134 329.402 524.251 345.97 523.825C348.967 523.748 352.181 523.668 355.604 523.584V1987.82C355.604 2004.7 371.413 2016.18 388.269 2018.06L395.767 2018.89ZM355.604 515.582V506.186C355.604 488.112 373.007 476.318 391.431 475.829C486.819 473.294 809.418 466.731 1108.26 484.012C1257.61 492.648 1401.43 507.26 1508.07 531.428C1561.32 543.496 1605.87 558.068 1637.29 575.798C1668.4 593.35 1688.94 615.381 1688.94 643.061V683.06V2149.61V2189.75C1688.94 2189.8 1688.94 2189.84 1688.94 2189.88V2237.88C1688.94 2242.46 1685.71 2245.41 1682.75 2246.37C1679.63 2247.39 1674.56 2246.78 1672.15 2241.98C1663.4 2224.49 1640.12 2207.91 1602.56 2192.95C1565.48 2178.17 1516.3 2165.67 1458.43 2155.16C1342.75 2134.16 1193.69 2121.35 1040.36 2113.76C733.767 2098.59 411.208 2104.35 306.958 2106.88L306.445 2106.9L298.498 2106.07C289.329 2105.11 280.965 2101.83 274.719 2096.74C268.466 2091.64 264 2084.36 264 2075.82V594.189C264 585.101 268.884 577.434 275.768 572.256C282.636 567.089 291.805 564.079 301.791 563.831C304.054 563.775 306.438 563.717 308.938 563.657V546.186C308.938 527.897 327.048 516.308 345.765 515.828C348.822 515.75 352.104 515.667 355.604 515.582ZM363.604 515.391V523.393V1987.82C363.604 1998.99 374.475 2008.47 389.155 2010.11L396.108 2010.88C586.798 2005.94 1558.56 1988.6 1672.94 2139.77C1673.97 2141.14 1674.93 2142.52 1675.82 2143.91C1677.03 2145.78 1678.1 2147.69 1679.04 2149.61C1679.12 2149.77 1679.19 2149.94 1679.27 2150.1C1679.65 2150.89 1680.9 2150.52 1680.94 2149.65V703.254L1680.94 703.256V654.881V643.061C1680.94 457.608 582.319 478.758 391.644 483.826C375.642 484.251 363.604 494.135 363.604 506.186V515.391ZM308.938 571.659C306.51 571.717 304.193 571.774 301.989 571.829C284.875 572.254 272 582.138 272 594.189V2075.82C272 2086.99 283.627 2096.47 299.328 2098.11L306.765 2098.88C511.027 2093.93 1553.23 2076.55 1672.94 2228.47C1673.92 2229.73 1674.85 2230.99 1675.71 2232.27C1676.96 2234.12 1678.07 2235.99 1679.04 2237.88C1679.09 2237.97 1679.13 2238.05 1679.17 2238.13C1679.22 2238.22 1679.26 2238.31 1679.31 2238.4C1679.7 2239.18 1680.94 2238.76 1680.94 2237.88V2198.61C1677.92 2198.91 1674.07 2197.8 1672.1 2193.76C1663.57 2176.28 1641 2159.74 1604.67 2144.82C1568.77 2130.07 1521.16 2117.59 1465.14 2107.1C1353.16 2086.12 1208.9 2073.32 1060.5 2065.75C763.79 2050.59 451.685 2056.35 350.794 2058.88L350.264 2058.89L342.537 2058.06C325.4 2056.21 308.938 2044.9 308.938 2027.81V571.659Z" fill="#595959"/>
<path fill-rule="evenodd" clip-rule="evenodd" d="M2973.17 2018.89L2972.62 2018.88C2875.22 2016.35 2573.97 2010.6 2287.51 2025.73C2144.24 2033.3 2004.97 2046.08 1896.83 2067.03C1842.73 2077.51 1796.76 2089.97 1762.09 2104.68C1727.02 2119.56 1705.2 2136.05 1696.89 2153.53C1694.93 2157.65 1691.02 2158.76 1688 2158.46V2189.79C1688.04 2190.65 1689.27 2191.04 1689.65 2190.25C1689.73 2190.09 1689.81 2189.92 1689.89 2189.75C1690.85 2187.84 1691.95 2185.96 1693.17 2184.09C1694.05 2182.76 1694.99 2181.44 1696 2180.14C1813.1 2028.57 2820.74 2045.93 3018.34 2050.88L3025.54 2050.11C3040.74 2048.47 3052 2038.98 3052 2027.81V546.186C3052 534.134 3039.54 524.251 3022.97 523.825C3019.97 523.748 3016.76 523.668 3013.33 523.584V1987.82C3013.33 2004.7 2997.52 2016.18 2980.67 2018.06L2973.17 2018.89ZM3013.33 515.582V506.186C3013.33 488.112 2995.93 476.318 2977.51 475.829C2882.12 473.294 2559.52 466.731 2260.68 484.012C2111.33 492.648 1967.51 507.26 1860.87 531.428C1807.62 543.496 1763.07 558.068 1731.65 575.798C1700.54 593.35 1680 615.381 1680 643.061V683.06V2149.61V2189.75C1680 2189.8 1680 2189.84 1680 2189.88V2237.88C1680 2242.46 1683.22 2245.41 1686.19 2246.37C1689.31 2247.39 1694.38 2246.78 1696.79 2241.98C1705.54 2224.49 1728.82 2207.91 1766.37 2192.95C1803.46 2178.17 1852.64 2165.67 1910.51 2155.16C2026.19 2134.16 2175.25 2121.35 2328.58 2113.76C2635.17 2098.59 2957.73 2104.35 3061.98 2106.88L3062.49 2106.9L3070.44 2106.07C3079.61 2105.11 3087.97 2101.83 3094.22 2096.74C3100.47 2091.64 3104.94 2084.36 3104.94 2075.82V594.189C3104.94 585.101 3100.05 577.434 3093.17 572.256C3086.3 567.089 3077.13 564.079 3067.15 563.831C3064.88 563.775 3062.5 563.717 3060 563.657V546.186C3060 527.897 3041.89 516.308 3023.17 515.828C3020.12 515.75 3016.83 515.667 3013.33 515.582ZM3005.33 515.391V523.393V1987.82C3005.33 1998.99 2994.46 2008.47 2979.78 2010.11L2972.83 2010.88C2782.14 2005.94 1810.38 1988.6 1696 2139.77C1694.97 2141.14 1694.01 2142.52 1693.11 2143.91C1691.91 2145.78 1690.84 2147.69 1689.9 2149.61C1689.82 2149.77 1689.74 2149.94 1689.67 2150.1C1689.29 2150.89 1688.04 2150.52 1688 2149.65V703.254L1688 703.256V654.881V643.061C1688 457.608 2786.62 478.758 2977.29 483.826C2993.3 484.251 3005.33 494.135 3005.33 506.186V515.391ZM3060 571.659C3062.43 571.717 3064.74 571.774 3066.95 571.829C3084.06 572.254 3096.94 582.138 3096.94 594.189V2075.82C3096.94 2086.99 3085.31 2096.47 3069.61 2098.11L3062.17 2098.88C2857.91 2093.93 1815.7 2076.55 1696 2228.47C1695.01 2229.73 1694.09 2230.99 1693.23 2232.27C1691.98 2234.12 1690.87 2235.99 1689.89 2237.88C1689.85 2237.97 1689.81 2238.05 1689.77 2238.13C1689.72 2238.22 1689.68 2238.31 1689.63 2238.4C1689.24 2239.18 1688 2238.76 1688 2237.88V2198.61C1691.02 2198.91 1694.87 2197.8 1696.84 2193.76C1705.37 2176.28 1727.94 2159.74 1764.27 2144.82C1800.17 2130.07 1847.78 2117.59 1903.8 2107.1C2015.78 2086.12 2160.04 2073.32 2308.43 2065.75C2605.15 2050.59 2917.25 2056.35 3018.14 2058.88L3018.67 2058.89L3026.4 2058.06C3043.54 2056.21 3060 2044.9 3060 2027.81V571.659Z" fill="#595959"/>
<path d="M958.521 671.886L974.516 753.112C975.893 760.109 980.892 765.843 987.636 768.161L1063.56 794.266C1074.36 797.978 1074.36 813.249 1063.56 816.962L987.636 843.066C980.892 845.385 975.893 851.119 974.516 858.115L958.521 939.342C955.979 952.25 937.515 952.25 934.973 939.342L918.978 858.115C917.601 851.119 912.602 845.385 905.858 843.066L829.934 816.962C819.136 813.249 819.136 797.978 829.934 794.266L905.858 768.161C912.602 765.843 917.601 760.109 918.978 753.112L934.973 671.886C937.515 658.977 955.979 658.977 958.521 671.886Z" stroke="#595959" stroke-width="8"/>
<path d="M611.945 1041.5L624.486 1075.39C625.701 1078.67 628.291 1081.26 631.575 1082.48L665.465 1095.02C668.947 1096.31 668.947 1101.23 665.465 1102.52L631.575 1115.06C628.291 1116.28 625.701 1118.87 624.486 1122.15L611.945 1156.04C610.657 1159.52 605.731 1159.52 604.443 1156.04L591.902 1122.15C590.687 1118.87 588.097 1116.28 584.813 1115.06L550.923 1102.52C547.441 1101.23 547.441 1096.31 550.923 1095.02L584.813 1082.48C588.097 1081.26 590.687 1078.67 591.902 1075.39L604.443 1041.5C605.731 1038.02 610.657 1038.02 611.945 1041.5Z" stroke="#595959" stroke-width="8"/>
<path d="M2700.5 177.367L2713.09 216.475C2714.15 219.79 2716.61 222.478 2719.81 223.841L2756.76 239.564C2760.01 240.945 2760.01 245.545 2756.76 246.926L2719.81 262.649C2716.61 264.012 2714.15 266.7 2713.09 270.015L2700.5 309.122C2699.31 312.822 2694.08 312.822 2692.89 309.122L2680.3 270.015C2679.23 266.7 2676.78 264.012 2673.58 262.649L2636.63 246.926C2633.38 245.545 2633.38 240.945 2636.63 239.564L2673.58 223.841C2676.78 222.478 2679.23 219.79 2680.3 216.475L2692.89 177.367C2694.08 173.668 2699.31 173.668 2700.5 177.367Z" stroke="#595959" stroke-width="8"/>
<line x1="4" y1="-4" x2="419.681" y2="-4" transform="matrix(1.35416e-05 1 -1 8.70508e-06 1830.96 1220.41)" stroke="#595959" stroke-width="8" stroke-linecap="round"/>
<line x1="4" y1="-4" x2="419.681" y2="-4" transform="matrix(1.49822e-05 1 -1 7.86805e-06 2508.01 1460.41)" stroke="#595959" stroke-width="8" stroke-linecap="round"/>
<line x1="4" y1="-4" x2="419.681" y2="-4" transform="matrix(1.52703e-05 1 -1 7.7196e-06 1927.68 1333.88)" stroke="#595959" stroke-width="8" stroke-linecap="round"/>
<line x1="4" y1="-4" x2="419.681" y2="-4" transform="matrix(1.49822e-05 1 -1 7.86805e-06 2604.74 1220.41)" stroke="#595959" stroke-width="8" stroke-linecap="round"/>
<line x1="4" y1="-4" x2="419.681" y2="-4" transform="matrix(1.52703e-05 1 -1 7.7196e-06 2024.41 1333.88)" stroke="#595959" stroke-width="8" stroke-linecap="round"/>
<line x1="4" y1="-4" x2="419.681" y2="-4" transform="matrix(1.49822e-05 1 -1 7.86805e-06 2701.46 1300.41)" stroke="#595959" stroke-width="8" stroke-linecap="round"/>
<line x1="2221.85" y1="1103.84" x2="2221.85" y2="1640.09" stroke="#595959" stroke-width="8" stroke-linecap="round"/>
<line x1="4" y1="-4" x2="419.681" y2="-4" transform="matrix(1.55584e-05 1 -1 7.57664e-06 2121.13 1236.41)" stroke="#595959" stroke-width="8" stroke-linecap="round"/>
<line x1="4" y1="-4" x2="419.681" y2="-4" transform="matrix(1.55584e-05 1 -1 7.57664e-06 2314.57 1220.41)" stroke="#595959" stroke-width="8" stroke-linecap="round"/>
<line x1="4" y1="-4" x2="419.681" y2="-4" transform="matrix(1.49822e-05 1 -1 7.86805e-06 2798.18 1380.41)" stroke="#595959" stroke-width="8" stroke-linecap="round"/>
<line x1="4" y1="-4" x2="419.681" y2="-4" transform="matrix(1.49822e-05 1 -1 7.86805e-06 2411.29 1364.41)" stroke="#595959" stroke-width="8" stroke-linecap="round"/>
<line x1="4" y1="-4" x2="419.681" y2="-4" transform="matrix(1.49822e-05 1 -1 7.86805e-06 2894.9 1220.41)" stroke="#595959" stroke-width="8" stroke-linecap="round"/>
<line x1="4" y1="-4" x2="419.681" y2="-4" transform="matrix(-1.32534e-05 -1 1 -8.74845e-06 1532.82 1763.52)" stroke="#595959" stroke-width="8" stroke-linecap="round"/>
<line x1="4" y1="-4" x2="419.681" y2="-4" transform="matrix(-1.51262e-05 -1 1 -7.66083e-06 855.763 1843.52)" stroke="#595959" stroke-width="8" stroke-linecap="round"/>
<line x1="4" y1="-4" x2="419.681" y2="-4" transform="matrix(-1.52703e-05 -1 1 -7.58856e-06 1436.09 1650.06)" stroke="#595959" stroke-width="8" stroke-linecap="round"/>
<line x1="4" y1="-4" x2="419.681" y2="-4" transform="matrix(-1.51262e-05 -1 1 -7.66083e-06 759.04 1763.52)" stroke="#595959" stroke-width="8" stroke-linecap="round"/>
<line x1="4" y1="-4" x2="564.315" y2="-4" transform="matrix(-1.52503e-05 -1 1 -7.59848e-06 1339.37 1650.06)" stroke="#595959" stroke-width="8" stroke-linecap="round"/>
<line x1="4" y1="-4" x2="419.681" y2="-4" transform="matrix(-1.51262e-05 -1 1 -7.66083e-06 662.318 1971.52)" stroke="#595959" stroke-width="8" stroke-linecap="round"/>
<line x1="1141.92" y1="1880.09" x2="1141.92" y2="1343.83" stroke="#595959" stroke-width="8" stroke-linecap="round"/>
<line x1="4" y1="-4" x2="419.681" y2="-4" transform="matrix(-1.52703e-05 -1 1 -7.58856e-06 1242.65 1747.52)" stroke="#595959" stroke-width="8" stroke-linecap="round"/>
<line x1="4" y1="-4" x2="419.681" y2="-4" transform="matrix(-1.52703e-05 -1 1 -7.58856e-06 1049.21 1763.52)" stroke="#595959" stroke-width="8" stroke-linecap="round"/>
<line x1="4" y1="-4" x2="419.681" y2="-4" transform="matrix(-1.52703e-05 -1 1 -7.58856e-06 565.597 1843.52)" stroke="#595959" stroke-width="8" stroke-linecap="round"/>
<line x1="4" y1="-4" x2="419.681" y2="-4" transform="matrix(-1.51262e-05 -1 1 -7.66083e-06 952.484 1619.52)" stroke="#595959" stroke-width="8" stroke-linecap="round"/>
<line x1="4" y1="-4" x2="419.681" y2="-4" transform="matrix(-1.52703e-05 -1 1 -7.58856e-06 468.874 1763.52)" stroke="#595959" stroke-width="8" stroke-linecap="round"/>
</g>
<defs>
<clipPath id="clip0">
<rect width="3360" height="1600" fill="white" transform="translate(0 0.476562)"/>
</clipPath>
</defs>
</svg>
