<svg width="5120" height="641" viewBox="0 0 5120 641" fill="none" xmlns="http://www.w3.org/2000/svg">
<g clip-path="url(#clip0)">
<rect x="-426.507" y="66.5312" width="5105.74" height="1021.15" fill="#2E2E2E"/>
<g clip-path="url(#clip1)">
<circle cx="2471" cy="36.4284" r="12.7643" fill="white"/>
<rect x="15.9902" y="-18.8828" width="5105.74" height="1021.15" fill="#252525"/>
<path d="M4994.33 -146.528C5658.87 -146.528 6696 -146.528 6696 -146.528L6696 1191.29C6557.69 1268.49 6414.47 1335.61 6263.67 1384.97C5962.07 1483.69 5657.85 1502.13 5353.07 1505.93C5284.46 1506.78 5215.85 1506.9 5147.23 1507.01C4910.72 1507.4 4674.16 1507.79 4437.54 1538.53C4138.27 1577.4 3876.01 1683.74 3634.53 1844.71C3634.53 1844.71 4463.29 631.099 4994.33 -146.528Z" fill="url(#paint0_radial)"/>
<path d="M4994.33 -146.528C5658.87 -146.528 6696 -146.528 6696 -146.528L6696 1191.29C6557.69 1268.49 6414.47 1335.61 6263.67 1384.97C5962.07 1483.69 5657.85 1502.13 5353.07 1505.93C5284.46 1506.78 5215.85 1506.9 5147.23 1507.01C4910.72 1507.4 4674.16 1507.79 4437.54 1538.53C4138.27 1577.4 3876.01 1683.74 3634.53 1844.71C3634.53 1844.71 4463.29 631.099 4994.33 -146.528Z" fill="url(#paint1_radial)"/>
<path d="M4989.43 -146.528L4994.33 -146.528C4463.29 631.099 3634.53 1844.71 3634.53 1844.71L1734.92 1844.71C1878.41 1513.41 2099.92 1251.9 2378.11 1025.32C2602.83 842.291 2862.97 727.879 3133.51 641.753C3314.2 584.234 3500 539.204 3683.09 494.835C3773.89 472.828 3864.03 450.984 3952.53 427.859C4318.2 332.319 4725.1 150.214 4989.43 -146.528Z" fill="url(#paint2_radial)"/>
<path d="M4989.43 -146.528L4994.33 -146.528C4463.29 631.099 3634.53 1844.71 3634.53 1844.71L1734.92 1844.71C1878.41 1513.41 2099.92 1251.9 2378.11 1025.32C2602.83 842.291 2862.97 727.879 3133.51 641.753C3314.2 584.234 3500 539.204 3683.09 494.835C3773.89 472.828 3864.03 450.984 3952.53 427.859C4318.2 332.319 4725.1 150.214 4989.43 -146.528Z" fill="url(#paint3_radial)"/>
<circle cx="4200" cy="576.477" r="16" fill="white"/>
<circle cx="4600" cy="312.477" r="16" fill="white"/>
<circle cx="4448" cy="208.477" r="8" fill="white"/>
<path d="M1136.61 1138.42C662.429 1138.42 -77.6152 1138.42 -77.6152 1138.42V223.674C21.0778 170.882 123.27 124.99 230.871 91.241C446.079 23.7412 663.156 11.128 880.633 8.53271C929.588 7.94849 978.546 7.87088 1027.51 7.79328C1196.27 7.5258 1365.07 7.25823 1533.91 -13.7581C1747.46 -40.3397 1934.59 -113.048 2106.9 -223.113C2106.9 -223.113 1515.54 606.707 1136.61 1138.42Z" fill="url(#paint4_radial)"/>
<path d="M1136.61 1138.42C662.429 1138.42 -77.6152 1138.42 -77.6152 1138.42V223.674C21.0778 170.882 123.27 124.99 230.871 91.241C446.079 23.7412 663.156 11.128 880.633 8.53271C929.588 7.94849 978.546 7.87088 1027.51 7.79328C1196.27 7.5258 1365.07 7.25823 1533.91 -13.7581C1747.46 -40.3397 1934.59 -113.048 2106.9 -223.113C2106.9 -223.113 1515.54 606.707 1136.61 1138.42Z" fill="url(#paint5_radial)"/>
<path d="M1136.61 1138.42C662.429 1138.42 -77.6152 1138.42 -77.6152 1138.42V223.674C21.0778 170.882 123.27 124.99 230.871 91.241C446.079 23.7412 663.156 11.128 880.633 8.53271C929.588 7.94849 978.546 7.87088 1027.51 7.79328C1196.27 7.5258 1365.07 7.25823 1533.91 -13.7581C1747.46 -40.3397 1934.59 -113.048 2106.9 -223.113C2106.9 -223.113 1515.54 606.707 1136.61 1138.42Z" fill="url(#paint6_linear)"/>
<path d="M1140.11 1138.42H1136.61C1515.54 606.707 2106.9 -223.113 2106.9 -223.113H3462.36C3359.98 3.41518 3201.92 182.229 3003.42 337.156C2843.07 462.302 2657.45 540.532 2464.4 599.422C2335.47 638.751 2202.89 669.541 2072.25 699.879C2007.46 714.926 1943.14 729.862 1879.99 745.674C1619.07 811.001 1328.72 935.517 1140.11 1138.42Z" fill="url(#paint7_radial)"/>
<path d="M1140.11 1138.42H1136.61C1515.54 606.707 2106.9 -223.113 2106.9 -223.113H3462.36C3359.98 3.41518 3201.92 182.229 3003.42 337.156C2843.07 462.302 2657.45 540.532 2464.4 599.422C2335.47 638.751 2202.89 669.541 2072.25 699.879C2007.46 714.926 1943.14 729.862 1879.99 745.674C1619.07 811.001 1328.72 935.517 1140.11 1138.42Z" fill="url(#paint8_radial)"/>
<path d="M1140.11 1138.42H1136.61C1515.54 606.707 2106.9 -223.113 2106.9 -223.113H3462.36C3359.98 3.41518 3201.92 182.229 3003.42 337.156C2843.07 462.302 2657.45 540.532 2464.4 599.422C2335.47 638.751 2202.89 669.541 2072.25 699.879C2007.46 714.926 1943.14 729.862 1879.99 745.674C1619.07 811.001 1328.72 935.517 1140.11 1138.42Z" fill="url(#paint9_linear)"/>
<path d="M747.76 1104.38C355.644 1104.38 -256.315 1104.38 -256.315 1104.38V349.716C-174.704 306.163 -90.1992 268.303 -1.22079 240.459C176.739 184.772 356.245 174.366 536.082 172.225C576.565 171.743 617.049 171.679 657.536 171.615C797.093 171.394 936.677 171.174 1076.29 153.835C1252.88 131.905 1407.63 71.921 1550.11 -18.8828C1550.11 -18.8828 1061.1 665.719 747.76 1104.38Z" fill="url(#paint10_radial)"/>
<path d="M747.76 1104.38C355.644 1104.38 -256.315 1104.38 -256.315 1104.38V349.716C-174.704 306.163 -90.1992 268.303 -1.22079 240.459C176.739 184.772 356.245 174.366 536.082 172.225C576.565 171.743 617.049 171.679 657.536 171.615C797.093 171.394 936.677 171.174 1076.29 153.835C1252.88 131.905 1407.63 71.921 1550.11 -18.8828C1550.11 -18.8828 1061.1 665.719 747.76 1104.38Z" fill="url(#paint11_radial)"/>
<path d="M750.649 1104.38H747.76C1061.1 665.719 1550.11 -18.8828 1550.11 -18.8828H2670.98C2586.31 168.003 2455.61 315.525 2291.46 443.339C2158.87 546.585 2005.37 611.125 1845.73 659.709C1739.12 692.155 1629.49 717.557 1521.46 742.586C1467.88 755 1414.7 767.322 1362.47 780.367C1146.71 834.261 906.619 936.987 750.649 1104.38Z" fill="url(#paint12_radial)"/>
<path d="M750.649 1104.38H747.76C1061.1 665.719 1550.11 -18.8828 1550.11 -18.8828H2670.98C2586.31 168.003 2455.61 315.525 2291.46 443.339C2158.87 546.585 2005.37 611.125 1845.73 659.709C1739.12 692.155 1629.49 717.557 1521.46 742.586C1467.88 755 1414.7 767.322 1362.47 780.367C1146.71 834.261 906.619 936.987 750.649 1104.38Z" fill="url(#paint13_radial)"/>
<path d="M83.6071 1099.94C-381.46 1099.94 -1107.27 1099.94 -1107.27 1099.94V202.351C-1010.48 150.549 -910.251 105.518 -804.718 72.4015C-593.649 6.1674 -380.747 -6.20932 -167.452 -8.75597C-119.438 -9.32923 -71.4217 -9.40538 -23.4023 -9.48153C142.118 -9.744 307.672 -10.0065 473.261 -30.6288C682.701 -56.712 866.238 -128.057 1035.23 -236.059C1035.23 -236.059 455.24 578.202 83.6071 1099.94Z" fill="url(#paint14_radial)"/>
<path d="M83.6071 1099.94C-381.46 1099.94 -1107.27 1099.94 -1107.27 1099.94V202.351C-1010.48 150.549 -910.251 105.518 -804.718 72.4015C-593.649 6.1674 -380.747 -6.20932 -167.452 -8.75597C-119.438 -9.32923 -71.4217 -9.40538 -23.4023 -9.48153C142.118 -9.744 307.672 -10.0065 473.261 -30.6288C682.701 -56.712 866.238 -128.057 1035.23 -236.059C1035.23 -236.059 455.24 578.202 83.6071 1099.94Z" fill="url(#paint15_radial)"/>
<path d="M87.0343 1099.94H83.6071C455.24 578.202 1035.23 -236.059 1035.23 -236.059H2364.63C2264.22 -13.7775 2109.2 161.684 1914.51 313.705C1757.24 436.505 1575.19 513.269 1385.86 571.054C1259.41 609.646 1129.38 639.858 1001.25 669.628C937.702 684.393 874.624 699.049 812.684 714.564C556.781 778.666 272.022 900.847 87.0343 1099.94Z" fill="url(#paint16_radial)"/>
<path d="M87.0343 1099.94H83.6071C455.24 578.202 1035.23 -236.059 1035.23 -236.059H2364.63C2264.22 -13.7775 2109.2 161.684 1914.51 313.705C1757.24 436.505 1575.19 513.269 1385.86 571.054C1259.41 609.646 1129.38 639.858 1001.25 669.628C937.702 684.393 874.624 699.049 812.684 714.564C556.781 778.666 272.022 900.847 87.0343 1099.94Z" fill="url(#paint17_radial)"/>
<circle cx="1832.78" cy="325.749" r="12.7643" fill="white"/>
<circle cx="194.691" cy="491.691" r="17.0191" fill="white"/>
<circle cx="309.57" cy="410.85" r="12.7643" fill="white"/>
<circle cx="1722.16" cy="376.813" r="21.2739" fill="white"/>
<circle cx="1951.92" cy="113.014" r="12.7643" fill="white"/>
<circle cx="2079.56" cy="147.053" r="12.7643" fill="white"/>
<g style="mix-blend-mode:overlay">
<path d="M2553.8 1109.54C2574.57 1049.11 2617.18 1002.72 2660.96 957.126C2747.48 867.029 2845.46 787.068 2948.72 716.998C3226.04 528.815 3534.53 401.911 3835.41 258.175C3971.86 192.987 4102.5 118.689 4218.82 21.2224C4392.29 -124.14 4542.67 -297.711 4683.59 -474.116C4726.57 -527.915 4871.55 -667.71 4825.69 -747.98" stroke="white" stroke-width="8" stroke-linecap="round" stroke-linejoin="round"/>
</g>
<g style="mix-blend-mode:overlay">
<path d="M3283.66 870.632C3423.41 730.887 3618.12 678.488 3805.31 634.809C3991.97 591.256 4181.36 545.921 4345.62 441.524C4472.99 360.564 4556.5 257.467 4633.68 129.207C4672.6 64.5252 4701.21 -5.77845 4741.14 -69.6758" stroke="white" stroke-width="8" stroke-linecap="round" stroke-linejoin="round"/>
</g>
<g style="mix-blend-mode:lighten">
<path d="M2267.95 1059.53C2397.47 918.442 2571.66 837.584 2747.41 767.802C3021.89 658.815 3331.26 624.857 3622.19 588.797C4034.24 537.725 4456.83 509.447 4838.7 330.809C5006.42 252.353 5167.38 130.972 5268.55 -26.4062" stroke="white" stroke-width="8" stroke-linecap="round" stroke-linejoin="round"/>
</g>
<g style="mix-blend-mode:soft-light">
<path d="M-281.845 1173.71C-278.42 995.634 -56.8538 876.97 80.1331 810.937C281.55 713.847 517.133 659.85 736.615 625.979C974.913 589.205 1218.89 594.757 1455.81 548.98C1732.47 495.523 1991.76 359.007 2213.9 187.796C2312.46 111.83 2400.87 21.3789 2479.82 -74.5589C2548.74 -158.292 2598.23 -226.843 2611.6 -333.738" stroke="white" stroke-width="8" stroke-linecap="round" stroke-linejoin="round"/>
</g>
<g style="mix-blend-mode:color-dodge">
<path d="M271.277 993.753C275.88 754.507 573.672 595.08 757.786 506.364C1028.5 375.923 1345.13 303.377 1640.12 257.871C1960.4 208.464 2288.31 215.922 2606.73 154.421C2978.57 82.6013 3327.07 -100.811 3625.63 -330.835C3758.1 -432.896 3876.92 -554.419 3983.04 -683.312C4075.66 -795.809 4142.19 -887.908 4160.15 -1031.52" stroke="white" stroke-width="8" stroke-linecap="round" stroke-linejoin="round"/>
</g>
<g style="mix-blend-mode:overlay" opacity="0.8">
<path d="M-182.468 680.879C-134.615 564.368 -21.1149 498.409 87.428 445.911C292.393 346.778 522.333 323.355 735.972 249.046C955.645 172.638 1133.88 66.519 1296.4 -99.0401C1382.07 -186.307 1442.04 -281.97 1496.44 -390.766" stroke="white" stroke-width="8" stroke-linecap="round" stroke-linejoin="round"/>
</g>
<path d="M5463.06 280.476C5697.74 280.476 6064 280.476 6064 280.476L6064 753.459C6015.15 780.755 5964.58 804.484 5911.32 821.935C5804.81 856.837 5697.38 863.359 5589.75 864.701C5565.52 865.003 5541.29 865.043 5517.05 865.083C5433.53 865.221 5349.99 865.36 5266.43 876.226C5160.74 889.971 5068.12 927.566 4982.84 984.477C4982.84 984.477 5275.52 555.406 5463.06 280.476Z" fill="url(#paint18_radial)"/>
<path d="M5463.06 280.476C5697.74 280.476 6064 280.476 6064 280.476L6064 753.459C6015.15 780.755 5964.58 804.484 5911.32 821.935C5804.81 856.837 5697.38 863.359 5589.75 864.701C5565.52 865.003 5541.29 865.043 5517.05 865.083C5433.53 865.221 5349.99 865.36 5266.43 876.226C5160.74 889.971 5068.12 927.566 4982.84 984.477C4982.84 984.477 5275.52 555.406 5463.06 280.476Z" fill="url(#paint19_radial)"/>
<path d="M5461.33 280.476L5463.06 280.476C5275.52 555.406 4982.84 984.477 4982.84 984.477L4312 984.477C4362.67 867.347 4440.9 774.888 4539.14 694.781C4618.5 630.072 4710.37 589.622 4805.91 559.172C4869.72 538.837 4935.34 522.916 4999.99 507.229C5032.06 499.449 5063.89 491.726 5095.15 483.55C5224.28 449.772 5367.98 385.389 5461.33 280.476Z" fill="url(#paint20_radial)"/>
<path d="M5461.33 280.476L5463.06 280.476C5275.52 555.406 4982.84 984.477 4982.84 984.477L4312 984.477C4362.67 867.347 4440.9 774.888 4539.14 694.781C4618.5 630.072 4710.37 589.622 4805.91 559.172C4869.72 538.837 4935.34 522.916 4999.99 507.229C5032.06 499.449 5063.89 491.726 5095.15 483.55C5224.28 449.772 5367.98 385.389 5461.33 280.476Z" fill="url(#paint21_radial)"/>
</g>
<g style="mix-blend-mode:overlay">
<path d="M3800.27 1006.97C3833.81 891.119 3955.8 818.866 4060.57 769.919C4245.76 683.392 4437.39 630.812 4638.79 600.727C4833.92 571.579 5033.74 558.734 5230.5 546.809C5414.07 535.683 5586.42 516.374 5755.74 438.972C5845.55 397.916 5931.9 354.711 6006.27 288.372C6062.7 238.049 6114.56 181.942 6168.03 128.477" stroke="white" stroke-width="8" stroke-linecap="round" stroke-linejoin="round"/>
</g>
</g>
<defs>
<radialGradient id="paint0_radial" cx="0" cy="0" r="1" gradientUnits="userSpaceOnUse" gradientTransform="translate(2083.6 1596.44) rotate(-24.8191) scale(2510.27 6729.52)">
<stop stop-color="#5256CC"/>
<stop offset="1" stop-color="#5256AA" stop-opacity="0"/>
</radialGradient>
<radialGradient id="paint1_radial" cx="0" cy="0" r="1" gradientUnits="userSpaceOnUse" gradientTransform="translate(6553.1 1405.61) rotate(-166.89) scale(4352.73 11793.6)">
<stop stop-color="#DFC4BE"/>
<stop offset="1" stop-color="#F9C8C8" stop-opacity="0"/>
</radialGradient>
<radialGradient id="paint2_radial" cx="0" cy="0" r="1" gradientUnits="userSpaceOnUse" gradientTransform="translate(2083.6 1596.44) rotate(-24.8191) scale(2510.27 6729.52)">
<stop stop-color="#5256CC"/>
<stop offset="1" stop-color="#5256AA" stop-opacity="0"/>
</radialGradient>
<radialGradient id="paint3_radial" cx="0" cy="0" r="1" gradientUnits="userSpaceOnUse" gradientTransform="translate(6553.1 1405.61) rotate(-166.89) scale(4352.73 11793.6)">
<stop stop-color="#DFC4BE"/>
<stop offset="1" stop-color="#F9C8C8" stop-opacity="0"/>
</radialGradient>
<radialGradient id="paint4_radial" cx="0" cy="0" r="1" gradientUnits="userSpaceOnUse" gradientTransform="translate(3213.56 -53.353) rotate(156.099) scale(1778.25 4634.89)">
<stop stop-color="#1B3DF1"/>
<stop offset="1" stop-color="#5358CB" stop-opacity="0.28"/>
</radialGradient>
<radialGradient id="paint5_radial" cx="0" cy="0" r="1" gradientUnits="userSpaceOnUse" gradientTransform="translate(24.3489 77.1276) rotate(12.5808) scale(3099.35 8081.01)">
<stop/>
<stop offset="1" stop-color="#F9C8C8" stop-opacity="0"/>
</radialGradient>
<linearGradient id="paint6_linear" x1="1560.48" y1="887.385" x2="1692.37" y2="1138.42" gradientUnits="userSpaceOnUse">
<stop stop-color="#1E1E1E"/>
<stop offset="0.791373" stop-color="#242424" stop-opacity="0.69"/>
</linearGradient>
<radialGradient id="paint7_radial" cx="0" cy="0" r="1" gradientUnits="userSpaceOnUse" gradientTransform="translate(3213.56 -53.353) rotate(156.099) scale(1778.25 4634.89)">
<stop stop-color="#1B3DF1"/>
<stop offset="1" stop-color="#5358CB" stop-opacity="0.28"/>
</radialGradient>
<radialGradient id="paint8_radial" cx="0" cy="0" r="1" gradientUnits="userSpaceOnUse" gradientTransform="translate(24.3489 77.1276) rotate(12.5808) scale(3099.35 8081.01)">
<stop/>
<stop offset="1" stop-color="#F9C8C8" stop-opacity="0"/>
</radialGradient>
<linearGradient id="paint9_linear" x1="1560.48" y1="887.385" x2="1692.37" y2="1138.42" gradientUnits="userSpaceOnUse">
<stop stop-color="#1E1E1E"/>
<stop offset="0.791373" stop-color="#242424" stop-opacity="0.69"/>
</linearGradient>
<radialGradient id="paint10_radial" cx="0" cy="0" r="1" gradientUnits="userSpaceOnUse" gradientTransform="translate(2465.24 121.169) rotate(156.148) scale(1469.92 3825.24)">
<stop stop-color="#5256CC"/>
<stop offset="1" stop-color="#5256AA" stop-opacity="0"/>
</radialGradient>
<radialGradient id="paint11_radial" cx="0" cy="0" r="1" gradientUnits="userSpaceOnUse" gradientTransform="translate(-171.999 228.816) rotate(12.5525) scale(2562.65 6667.57)">
<stop stop-color="#DFC4BE"/>
<stop offset="1" stop-color="#F9C8C8" stop-opacity="0"/>
</radialGradient>
<radialGradient id="paint12_radial" cx="0" cy="0" r="1" gradientUnits="userSpaceOnUse" gradientTransform="translate(2465.24 121.169) rotate(156.148) scale(1469.92 3825.24)">
<stop stop-color="#5256CC"/>
<stop offset="1" stop-color="#5256AA" stop-opacity="0"/>
</radialGradient>
<radialGradient id="paint13_radial" cx="0" cy="0" r="1" gradientUnits="userSpaceOnUse" gradientTransform="translate(-171.999 228.816) rotate(12.5525) scale(2562.65 6667.57)">
<stop stop-color="#DFC4BE"/>
<stop offset="1" stop-color="#F9C8C8" stop-opacity="0"/>
</radialGradient>
<radialGradient id="paint14_radial" cx="0" cy="0" r="1" gradientUnits="userSpaceOnUse" gradientTransform="translate(2120.61 -69.4813) rotate(156.088) scale(1744.2 4547.62)">
<stop stop-color="#5256CC"/>
<stop offset="1" stop-color="#5256AA" stop-opacity="0"/>
</radialGradient>
<radialGradient id="paint15_radial" cx="0" cy="0" r="1" gradientUnits="userSpaceOnUse" gradientTransform="translate(-1007.27 58.5528) rotate(12.5868) scale(3039.82 7929.31)">
<stop stop-color="#DFC4BE"/>
<stop offset="1" stop-color="#F9C8C8" stop-opacity="0"/>
</radialGradient>
<radialGradient id="paint16_radial" cx="0" cy="0" r="1" gradientUnits="userSpaceOnUse" gradientTransform="translate(2120.61 -69.4813) rotate(156.088) scale(1744.2 4547.62)">
<stop stop-color="#5256CC"/>
<stop offset="1" stop-color="#5256AA" stop-opacity="0"/>
</radialGradient>
<radialGradient id="paint17_radial" cx="0" cy="0" r="1" gradientUnits="userSpaceOnUse" gradientTransform="translate(-1007.27 58.5528) rotate(12.5868) scale(3039.82 7929.31)">
<stop stop-color="#DFC4BE"/>
<stop offset="1" stop-color="#F9C8C8" stop-opacity="0"/>
</radialGradient>
<radialGradient id="paint18_radial" cx="0" cy="0" r="1" gradientUnits="userSpaceOnUse" gradientTransform="translate(4435.14 896.7) rotate(-24.8438) scale(886.675 2378.74)">
<stop stop-color="#5256CC"/>
<stop offset="1" stop-color="#5256AA" stop-opacity="0"/>
</radialGradient>
<radialGradient id="paint19_radial" cx="0" cy="0" r="1" gradientUnits="userSpaceOnUse" gradientTransform="translate(6013.54 829.232) rotate(-166.875) scale(1537.25 4169.37)">
<stop stop-color="#DFC4BE"/>
<stop offset="1" stop-color="#F9C8C8" stop-opacity="0"/>
</radialGradient>
<radialGradient id="paint20_radial" cx="0" cy="0" r="1" gradientUnits="userSpaceOnUse" gradientTransform="translate(4435.14 896.7) rotate(-24.8438) scale(886.675 2378.74)">
<stop stop-color="#5256CC"/>
<stop offset="1" stop-color="#5256AA" stop-opacity="0"/>
</radialGradient>
<radialGradient id="paint21_radial" cx="0" cy="0" r="1" gradientUnits="userSpaceOnUse" gradientTransform="translate(6013.54 829.232) rotate(-166.875) scale(1537.25 4169.37)">
<stop stop-color="#DFC4BE"/>
<stop offset="1" stop-color="#F9C8C8" stop-opacity="0"/>
</radialGradient>
<clipPath id="clip0">
<rect width="5120" height="640" fill="white" transform="translate(0 0.476562)"/>
</clipPath>
<clipPath id="clip1">
<rect width="5120" height="1136" fill="white" transform="translate(0 -167.523)"/>
</clipPath>
</defs>
</svg>
