<svg width="192" height="193" viewBox="0 0 192 193" fill="none" xmlns="http://www.w3.org/2000/svg">
<path d="M124.444 42.6988H67.5556V46.2543C67.5556 48.218 65.9637 49.8099 64 49.8099C62.0363 49.8099 60.4444 48.218 60.4444 46.2543V42.6988H49.7778C43.8867 42.6988 39.1111 47.4744 39.1111 53.3655V71.1432H152.889V53.3655C152.889 47.4744 148.113 42.6988 142.222 42.6988H131.556V46.2543C131.556 48.218 129.964 49.8099 128 49.8099C126.036 49.8099 124.444 48.218 124.444 46.2543V42.6988ZM131.556 35.5877H142.222C152.041 35.5877 160 43.5471 160 53.3655V145.862C160 155.681 152.041 163.64 142.222 163.64H49.7778C39.9594 163.64 32 155.681 32 145.862V53.3655C32 43.5471 39.9594 35.5877 49.7778 35.5877H60.4444V32.0321C60.4444 30.0684 62.0363 28.4766 64 28.4766C65.9637 28.4766 67.5556 30.0684 67.5556 32.0321V35.5877H124.444V32.0321C124.444 30.0684 126.036 28.4766 128 28.4766C129.964 28.4766 131.556 30.0684 131.556 32.0321V35.5877ZM152.889 78.2543H39.1111V145.862C39.1111 151.753 43.8867 156.529 49.7778 156.529H142.222C148.113 156.529 152.889 151.753 152.889 145.862V78.2543Z" fill="white" fill-opacity="0.6"/>
</svg>
