<svg width="192" height="193" viewBox="0 0 192 193" fill="none" xmlns="http://www.w3.org/2000/svg">
<path fill-rule="evenodd" clip-rule="evenodd" d="M24 96.4766C24 136.241 56.2355 168.477 96 168.477C135.765 168.477 168 136.241 168 96.4766C168 56.7121 135.765 24.4766 96 24.4766C56.2355 24.4766 24 56.7121 24 96.4766ZM160.799 96.4766C160.799 132.265 131.787 161.277 95.9992 161.277C60.2112 161.277 31.1992 132.265 31.1992 96.4766C31.1992 60.6885 60.2112 31.6766 95.9992 31.6766C131.787 31.6766 160.799 60.6885 160.799 96.4766Z" fill="#B3B3B3"/>
<path d="M95.9992 161.276C131.787 161.276 160.799 132.264 160.799 96.4758C160.799 60.6877 131.787 31.6758 95.9992 31.6758C60.2112 31.6758 31.1992 60.6877 31.1992 96.4758C31.1992 132.264 60.2112 161.276 95.9992 161.276Z" fill="black" fill-opacity="0.1"/>
<path fill-rule="evenodd" clip-rule="evenodd" d="M77.8436 68.829C78.9766 68.293 80.3442 68.3732 81.3917 69.0371L122.535 95.1111C123.475 95.7069 124.024 96.6898 123.999 97.7301C123.974 98.7704 123.377 99.7304 122.409 100.288L81.2663 123.992C80.2104 124.6 78.8733 124.639 77.7772 124.092C76.6811 123.545 76 122.5 76 121.365V71.5877C76 70.4282 76.7106 69.365 77.8436 68.829Z" fill="white"/>
</svg>
