<svg width="192" height="193" viewBox="0 0 192 193" fill="none" xmlns="http://www.w3.org/2000/svg">
<path fill-rule="evenodd" clip-rule="evenodd" d="M24 96.4766C24 136.241 56.2355 168.477 96 168.477C135.765 168.477 168 136.241 168 96.4766C168 56.7121 135.765 24.4766 96 24.4766C56.2355 24.4766 24 56.7121 24 96.4766ZM160.799 96.4766C160.799 132.265 131.787 161.277 95.9992 161.277C60.2112 161.277 31.1992 132.265 31.1992 96.4766C31.1992 60.6885 60.2112 31.6766 95.9992 31.6766C131.787 31.6766 160.799 60.6885 160.799 96.4766Z" fill="#B3B3B3"/>
<path d="M95.9992 161.276C131.787 161.276 160.799 132.264 160.799 96.4758C160.799 60.6877 131.787 31.6758 95.9992 31.6758C60.2112 31.6758 31.1992 60.6877 31.1992 96.4758C31.1992 132.264 60.2112 161.276 95.9992 161.276Z" fill="black" fill-opacity="0.1"/>
<rect x="74.1855" y="73.5742" width="12.5506" height="45.8071" rx="4" fill="white"/>
<rect x="105.264" y="73.5742" width="12.5506" height="45.8071" rx="4" fill="white"/>
</svg>
