<svg width="192" height="193" viewBox="0 0 192 193" fill="none" xmlns="http://www.w3.org/2000/svg">
<path fill-rule="evenodd" clip-rule="evenodd" d="M144 44.4766C144 42.2674 145.791 40.4766 148 40.4766C150.209 40.4766 152 42.2674 152 44.4766V64.4766H172C174.209 64.4766 176 66.2674 176 68.4766C176 70.6857 174.209 72.4766 172 72.4766H152V92.4766C152 94.6857 150.209 96.4766 148 96.4766C145.791 96.4766 144 94.6857 144 92.4766V72.4766H124C121.791 72.4766 120 70.6857 120 68.4766C120 66.2674 121.791 64.4766 124 64.4766H144V44.4766ZM56 68.4766C56 70.6857 57.7909 72.4766 60 72.4766H100C102.209 72.4766 104 70.6857 104 68.4766C104 66.2674 102.209 64.4766 100 64.4766H60C57.7909 64.4766 56 66.2674 56 68.4766ZM60 96.4766C57.7909 96.4766 56 98.2674 56 100.477C56 102.686 57.7909 104.477 60 104.477H124C126.209 104.477 128 102.686 128 100.477C128 98.2674 126.209 96.4766 124 96.4766H60ZM56 132.477C56 130.267 57.7909 128.477 60 128.477H132C134.209 128.477 136 130.267 136 132.477C136 134.686 134.209 136.477 132 136.477H60C57.7909 136.477 56 134.686 56 132.477ZM44 126.477C46.2091 126.477 48 128.267 48 130.477V134.477C48 136.686 46.2091 138.477 44 138.477H40C37.7909 138.477 36 136.686 36 134.477V130.477C36 128.267 37.7909 126.477 40 126.477H44ZM48 98.4766C48 96.2674 46.2091 94.4766 44 94.4766H40C37.7909 94.4766 36 96.2674 36 98.4766V102.477C36 104.686 37.7909 106.477 40 106.477H44C46.2091 106.477 48 104.686 48 102.477V98.4766ZM44 62.4766C46.2091 62.4766 48 64.2674 48 66.4766V70.4766C48 72.6857 46.2091 74.4766 44 74.4766H40C37.7909 74.4766 36 72.6857 36 70.4766V66.4766C36 64.2674 37.7909 62.4766 40 62.4766H44Z" fill="white" fill-opacity="0.6"/>
</svg>
