<svg width="192" height="193" viewBox="0 0 192 193" fill="none" xmlns="http://www.w3.org/2000/svg">
<path fill-rule="evenodd" clip-rule="evenodd" d="M147.196 144.477V61.4606C147.25 60.611 146.966 59.7268 146.258 59.0189L120.66 33.4202C119.952 32.7123 119.068 32.4291 118.218 32.483H60.8C51.9639 32.483 44.8008 39.6461 44.8008 48.4822V144.477C44.8008 153.313 51.9639 160.477 60.8 160.477H131.196C140.033 160.477 147.196 153.313 147.196 144.477ZM60.8007 38.8828H115.198V61.2817C115.198 63.0489 116.631 64.4815 118.398 64.4815H140.797V144.478C140.797 149.779 136.499 154.077 131.197 154.077H60.8007C55.499 154.077 51.2012 149.779 51.2012 144.478V48.4823C51.2012 43.1807 55.499 38.8828 60.8007 38.8828ZM121.596 43.4062V58.08H136.269L121.596 43.4062ZM107.629 115.778L97.8413 96.2031C100.477 95.4118 102.398 92.9666 102.398 90.0728V83.6731C102.398 80.1387 99.5328 77.2734 95.9984 77.2734H89.5987C86.0643 77.2734 83.199 80.1387 83.199 83.6731V90.0728C83.199 92.9666 85.1197 95.4118 87.7558 96.2031L77.9683 115.778C77.5893 115.708 77.1986 115.672 76.7994 115.672H70.3997C66.8652 115.672 64 118.537 64 122.071V128.471C64 132.005 66.8652 134.871 70.3997 134.871H76.7994C80.3338 134.871 83.199 132.005 83.199 128.471V122.071H102.398V128.471C102.398 132.005 105.263 134.871 108.798 134.871H115.197C118.732 134.871 121.597 132.005 121.597 128.471V122.071C121.597 118.537 118.732 115.672 115.197 115.672H108.798C108.399 115.672 108.008 115.708 107.629 115.778ZM89.5977 83.6758V90.0755H95.9973V83.6758H89.5977ZM70.3984 128.47V122.07H76.7981V128.47H70.3984ZM108.799 122.07V128.47H115.199V122.07H108.799ZM85.1758 115.674L92.7977 100.43L100.42 115.674H85.1758Z" fill="#E77465"/>
</svg>
