<svg width="144" height="145" viewBox="0 0 144 145" fill="none" xmlns="http://www.w3.org/2000/svg">
<path d="M105.896 67.3015C107.066 66.1281 108.965 66.1252 110.138 67.295C111.312 68.4648 111.315 70.3643 110.145 71.5377L74.478 107.313C65.008 116.812 49.6306 116.836 40.13 107.364C30.631 97.8651 30.631 82.504 40.1084 73.0267L77.6578 35.6819C84.6498 28.728 95.9504 28.7435 102.923 35.7164C109.894 42.6872 109.896 53.9886 102.927 60.9612L64.79 99.1179C60.2802 103.63 52.9664 103.632 48.4539 99.1219C43.9396 94.6077 43.9271 87.2955 48.4241 82.7677L75.7955 55.2089C76.963 54.0334 78.8625 54.0269 80.0381 55.1945C81.2136 56.362 81.2201 58.2615 80.0526 59.4371L52.6812 86.9958C50.5137 89.1781 50.5197 92.7025 52.6944 94.8772C54.8641 97.0458 58.3789 97.0449 60.5463 94.8764L98.6829 56.7197C103.31 52.0904 103.309 44.5871 98.6807 39.959C94.0464 35.3247 86.5358 35.3144 81.8888 39.9361L44.3864 77.2341C37.2168 84.4035 37.2168 95.9656 44.3465 103.095C51.52 110.247 63.0984 110.229 70.2289 103.077L105.896 67.3015Z" fill="white" fill-opacity="0.5"/>
</svg>
