<svg width="192" height="193" viewBox="0 0 192 193" fill="none" xmlns="http://www.w3.org/2000/svg">
<path fill-rule="evenodd" clip-rule="evenodd" d="M147.196 144.477V61.4606C147.25 60.611 146.966 59.7268 146.258 59.0189L120.66 33.4202C119.952 32.7123 119.068 32.4291 118.218 32.483H60.8C51.9639 32.483 44.8008 39.6461 44.8008 48.4822V144.477C44.8008 153.313 51.9639 160.477 60.8 160.477H131.196C140.033 160.477 147.196 153.313 147.196 144.477ZM60.8007 38.8828H115.198V61.2817C115.198 63.0489 116.631 64.4815 118.398 64.4815H140.797V144.478C140.797 149.779 136.499 154.077 131.197 154.077H60.8007C55.499 154.077 51.2012 149.779 51.2012 144.478V48.4823C51.2012 43.1807 55.499 38.8828 60.8007 38.8828ZM121.598 43.4062V58.08H136.271L121.598 43.4062ZM70.4004 80.4733C70.4004 82.2405 71.833 83.6731 73.6002 83.6731H118.398C120.165 83.6731 121.598 82.2405 121.598 80.4733C121.598 78.7061 120.165 77.2734 118.398 77.2734H73.6002C71.833 77.2734 70.4004 78.7061 70.4004 80.4733ZM73.6002 102.872C71.833 102.872 70.4004 101.44 70.4004 99.6725C70.4004 97.9053 71.833 96.4727 73.6002 96.4727H118.398C120.165 96.4727 121.598 97.9053 121.598 99.6725C121.598 101.44 120.165 102.872 118.398 102.872H73.6002ZM70.4004 118.872C70.4004 120.639 71.833 122.072 73.6002 122.072H105.599C107.366 122.072 108.798 120.639 108.798 118.872C108.798 117.104 107.366 115.672 105.599 115.672H73.6002C71.833 115.672 70.4004 117.104 70.4004 118.872Z" fill="#5595FF"/>
</svg>
