<svg width="192" height="193" viewBox="0 0 192 193" fill="none" xmlns="http://www.w3.org/2000/svg">
<path fill-rule="evenodd" clip-rule="evenodd" d="M139.573 138.077C146.565 137.295 152 131.364 152 124.164V107.364C152 99.632 145.732 93.364 138 93.364H135.2V87.6766C135.2 66.027 117.65 48.4766 96 48.4766C74.3504 48.4766 56.8 66.027 56.8 87.6766V93.364H54C46.268 93.364 40 99.632 40 107.364V124.164C40 131.896 46.268 138.164 54 138.164H65.2C66.7464 138.164 68 136.91 68 135.364V96.164C68 94.6176 66.7464 93.364 65.2 93.364H62.4V87.6766C62.4 69.1198 77.4432 54.0766 96 54.0766C114.557 54.0766 129.6 69.1198 129.6 87.6766V93.364H126.8C125.254 93.364 124 94.6176 124 96.164V135.364C124 136.67 124.894 137.767 126.103 138.077H139.573ZM62.4 132.564V98.964H54C49.3608 98.964 45.6 102.725 45.6 107.364V124.164C45.6 128.803 49.3608 132.564 54 132.564H62.4ZM129.6 132.564V98.964H138C142.639 98.964 146.4 102.725 146.4 107.364V124.164C146.4 128.803 142.639 132.564 138 132.564H129.6Z" fill="#65C6EF"/>
</svg>
