<svg width="192" height="193" viewBox="0 0 192 193" fill="none" xmlns="http://www.w3.org/2000/svg">
<path fill-rule="evenodd" clip-rule="evenodd" d="M55.5556 40.4766C46.9645 40.4766 40 47.441 40 56.0321V136.921C40 145.512 46.9645 152.477 55.5556 152.477H136.444C145.036 152.477 152 145.512 152 136.921V56.0321C152 47.441 145.036 40.4766 136.444 40.4766H55.5556ZM145.778 116.966V56.0326C145.778 50.8779 141.6 46.6992 136.445 46.6992H55.556C50.4013 46.6992 46.2227 50.8779 46.2227 56.0326V98.2994L65.8005 78.7216C67.0155 77.5066 68.9854 77.5066 70.2003 78.7216L105.334 113.855L121.801 97.3882C123.016 96.1733 124.985 96.1733 126.2 97.3882L145.778 116.966ZM145.778 125.765L124 103.987L107.534 120.454C106.319 121.669 104.349 121.669 103.134 120.454L68.0004 85.3203L46.2227 107.098V136.921C46.2227 142.075 50.4013 146.254 55.556 146.254H136.445C141.6 146.254 145.778 142.075 145.778 136.921V125.765ZM114.666 59.1445H127.11C130.546 59.1445 133.332 61.9303 133.332 65.3668V77.8112C133.332 81.2476 130.546 84.0334 127.11 84.0334H114.666C111.229 84.0334 108.443 81.2476 108.443 77.8112V65.3668C108.443 61.9303 111.229 59.1445 114.666 59.1445ZM114.668 77.8116V65.3672H127.112V77.8116H114.668Z" fill="#72CDBD"/>
</svg>
