<svg width="192" height="193" viewBox="0 0 192 193" fill="none" xmlns="http://www.w3.org/2000/svg">
<path d="M96 89.8876L135.806 50.0817C137.68 48.2072 140.72 48.2072 142.594 50.0817C144.469 51.9562 144.469 54.9954 142.594 56.8699L102.788 96.6758L142.594 136.482C144.469 138.356 144.469 141.395 142.594 143.27C140.72 145.144 137.68 145.144 135.806 143.27L96 103.464L56.1941 143.27C54.3196 145.144 51.2804 145.144 49.4059 143.27C47.5314 141.395 47.5314 138.356 49.4059 136.482L89.2118 96.6758L49.4059 56.8699C47.5314 54.9954 47.5314 51.9562 49.4059 50.0817C51.2804 48.2072 54.3196 48.2072 56.1941 50.0817L96 89.8876Z" fill="white" fill-opacity="0.45"/>
</svg>
