<svg width="144" height="145" viewBox="0 0 144 145" fill="none" xmlns="http://www.w3.org/2000/svg">
<path fill-rule="evenodd" clip-rule="evenodd" d="M72.0008 27.2773C47.0375 27.2773 26.8008 47.5141 26.8008 72.4773C26.8008 97.4406 47.0375 117.677 72.0008 117.677C96.9641 117.677 117.201 97.4406 117.201 72.4773C117.201 47.5141 96.9641 27.2773 72.0008 27.2773ZM33.5997 72.4773C33.5997 51.2696 50.792 34.0773 71.9997 34.0773C93.2074 34.0773 110.4 51.2696 110.4 72.4773C110.4 93.6851 93.2074 110.877 71.9997 110.877C50.792 110.877 33.5997 93.6851 33.5997 72.4773ZM68.6801 47.3827C68.186 45.5711 66.3169 44.5031 64.5053 44.9971C62.6937 45.4912 61.6256 47.3603 62.1197 49.1719L68.7197 73.3719C68.9258 74.1275 69.3864 74.7888 70.0237 75.244L85.4237 86.244C86.9517 87.3355 89.0752 86.9815 90.1666 85.4535C91.258 83.9255 90.9041 81.8021 89.3761 80.7106L74.9615 70.4145L68.6801 47.3827Z" fill="#C6C6C6"/>
</svg>
