<svg width="144" height="145" viewBox="0 0 144 145" fill="none" xmlns="http://www.w3.org/2000/svg">
<path fill-rule="evenodd" clip-rule="evenodd" d="M24 36.4766C24 34.2674 25.7909 32.4766 28 32.4766H100C102.209 32.4766 104 34.2674 104 36.4766C104 38.6857 102.209 40.4766 100 40.4766H28C25.7909 40.4766 24 38.6857 24 36.4766ZM28 64.4766C25.7909 64.4766 24 66.2674 24 68.4766C24 70.6857 25.7909 72.4766 28 72.4766H68C70.2091 72.4766 72 70.6857 72 68.4766C72 66.2674 70.2091 64.4766 68 64.4766H28ZM28 104.477C25.7909 104.477 24 102.686 24 100.477C24 98.2674 25.7909 96.4766 28 96.4766H68C70.2091 96.4766 72 98.2674 72 100.477C72 102.686 70.2091 104.477 68 104.477H28ZM101.76 60.4766H123.595C128.424 60.4766 132.625 63.7829 133.76 68.4766H111.192L116.415 92.4762L117.816 98.9141L118.141 100.405C118.268 100.845 118.367 101.296 118.437 101.757C119.467 108.553 113.749 115.056 105.667 116.28C97.5843 117.505 90.1973 112.989 89.1674 106.192C88.1376 99.3961 93.8549 92.8939 101.937 91.6691C104.189 91.3279 106.387 91.4323 108.409 91.9076L103.788 69.2461L103.289 66.8009L101.76 60.4766Z" fill="#F8D480"/>
</svg>
