<svg width="192" height="193" viewBox="0 0 192 193" fill="none" xmlns="http://www.w3.org/2000/svg">
<path fill-rule="evenodd" clip-rule="evenodd" d="M147.196 144.475V61.4586C147.25 60.6091 146.966 59.7248 146.258 59.017L120.66 33.4182C119.952 32.7104 119.068 32.4271 118.218 32.481H60.8C51.9639 32.481 44.8008 39.6441 44.8008 48.4802V144.475C44.8008 153.312 51.9639 160.475 60.8 160.475H131.196C140.033 160.475 147.196 153.312 147.196 144.475ZM60.8007 38.8809H115.198V61.2797C115.198 63.047 116.631 64.4796 118.398 64.4796H140.797V144.476C140.797 149.777 136.499 154.075 131.197 154.075H60.8007C55.499 154.075 51.2012 149.777 51.2012 144.476V48.4804C51.2012 43.1787 55.499 38.8809 60.8007 38.8809ZM121.598 43.4043V58.0781H136.271L121.598 43.4043ZM70.4004 80.4713C70.4004 82.2385 71.833 83.6712 73.6002 83.6712H118.398C120.165 83.6712 121.598 82.2385 121.598 80.4713C121.598 78.7041 120.165 77.2715 118.398 77.2715H73.6002C71.833 77.2715 70.4004 78.7041 70.4004 80.4713ZM73.6002 102.87C71.833 102.87 70.4004 101.438 70.4004 99.6705C70.4004 97.9033 71.833 96.4707 73.6002 96.4707H118.398C120.165 96.4707 121.598 97.9033 121.598 99.6705C121.598 101.438 120.165 102.87 118.398 102.87H73.6002ZM70.4004 118.87C70.4004 120.637 71.833 122.07 73.6002 122.07H105.599C107.366 122.07 108.798 120.637 108.798 118.87C108.798 117.103 107.366 115.67 105.599 115.67H73.6002C71.833 115.67 70.4004 117.103 70.4004 118.87Z" fill="#5AB0FF"/>
</svg>
