<svg width="192" height="193" viewBox="0 0 192 193" fill="none" xmlns="http://www.w3.org/2000/svg">
<path fill-rule="evenodd" clip-rule="evenodd" d="M32 49.3167C32 40.0151 39.5405 32.4746 48.8421 32.4746H143.158C152.46 32.4746 160 40.0151 160 49.3167V143.633C160 152.934 152.46 160.475 143.158 160.475H48.8421C39.5405 160.475 32 152.934 32 143.633V49.3167ZM99.3678 93.1056H122.947C124.807 93.1056 126.315 94.6137 126.315 96.474C126.315 98.3343 124.807 99.8424 122.947 99.8424H99.3678V123.421C99.3678 125.282 97.8597 126.79 95.9994 126.79C94.1391 126.79 92.631 125.282 92.631 123.421V99.8424H69.052C67.1917 99.8424 65.6836 98.3343 65.6836 96.474C65.6836 94.6137 67.1917 93.1056 69.052 93.1056H92.631V69.5266C92.631 67.6663 94.1391 66.1582 95.9994 66.1582C97.8597 66.1582 99.3678 67.6663 99.3678 69.5266V93.1056ZM38.7344 143.634V49.3182C38.7344 43.7372 43.2587 39.2129 48.8396 39.2129H143.155C148.736 39.2129 153.261 43.7372 153.261 49.3182V143.634C153.261 149.215 148.736 153.739 143.155 153.739H48.8396C43.2587 153.739 38.7344 149.215 38.7344 143.634Z" fill="#5AB0FF"/>
</svg>
