<svg width="256" height="257" viewBox="0 0 256 257" fill="none" xmlns="http://www.w3.org/2000/svg">
<path d="M216 220.477V28.4766C216 26.2674 214.209 24.4766 212 24.4766H94.6274C90.384 24.4766 86.3143 26.1623 83.3137 29.1629L44.6863 67.7903C41.6857 70.7909 40 74.8605 40 79.104V220.477C40 222.686 41.7909 224.477 44 224.477H212C214.209 224.477 216 222.686 216 220.477Z" fill="#5AB0FF" fill-opacity="0.2"/>
<path d="M127.905 103.445H128.095C152.567 103.445 172.406 123.842 172.406 149.002C172.406 150.358 172.381 151.69 172.336 152.997L173.507 153.315C178.163 154.581 180.94 159.487 179.708 164.274L174.437 184.77C173.206 189.556 168.433 192.411 163.778 191.145L157.761 189.509C155.875 188.996 154.76 187.008 155.288 185.077C157.586 176.664 163.247 155.748 163.631 152.407C163.656 152.187 163.671 151.985 163.68 151.796C163.705 151.236 163.672 150.778 163.679 150.23C163.683 149.823 163.686 149.414 163.686 149.002C163.686 128.793 147.751 112.41 128.095 112.41H127.905C108.249 112.41 92.314 128.793 92.314 149.002C92.314 149.414 92.3166 149.823 92.3214 150.23C92.3241 150.452 92.3203 150.66 92.3166 150.866C92.3076 151.337 92.299 151.799 92.3693 152.407C92.753 155.748 98.4137 176.664 100.712 185.077C101.24 187.008 100.125 188.996 98.2391 189.509L92.2224 191.145C87.5666 192.411 82.7942 189.556 81.5631 184.77L76.292 164.274C75.0605 159.487 77.8371 154.581 82.4929 153.315L83.6643 152.997C83.6409 152.327 83.6228 151.652 83.6111 150.969C83.5999 150.319 83.5941 149.663 83.5941 149.002C83.5941 123.842 103.433 103.445 127.905 103.445Z" fill="#5AB0FF"/>
<path d="M88 72.4766V24.4766L40 72.4766H88Z" fill="#5AB0FF" fill-opacity="0.5"/>
</svg>
