<svg width="192" height="193" viewBox="0 0 192 193" fill="none" xmlns="http://www.w3.org/2000/svg">
<path fill-rule="evenodd" clip-rule="evenodd" d="M89.6 48.4746H48C39.1634 48.4746 32 55.6381 32 64.4746V134.875C32 143.711 39.1634 150.875 48 150.875H144C152.837 150.875 160 143.711 160 134.875V83.6746C160 74.8381 152.837 67.6746 144 67.6746H108.8C105.265 67.6746 102.4 64.8092 102.4 61.2746C102.4 54.2054 96.6692 48.4746 89.6 48.4746ZM38.3984 64.473C38.3984 59.1711 42.6965 54.873 47.9984 54.873H89.5984C93.1331 54.873 95.9984 57.7384 95.9984 61.273C95.9984 68.3423 101.729 74.073 108.798 74.073H143.998C149.3 74.073 153.598 78.3711 153.598 83.673V134.873C153.598 140.175 149.3 144.473 143.998 144.473H47.9984C42.6965 144.473 38.3984 140.175 38.3984 134.873V64.473Z" fill="#5AB0FF"/>
</svg>
