<svg width="256" height="257" viewBox="0 0 256 257" fill="none" xmlns="http://www.w3.org/2000/svg">
<path d="M100.236 48.4766C106.864 48.4766 112.236 53.8491 112.236 60.4766V63.4718C112.236 65.6809 114.027 67.4718 116.236 67.4718H208C214.627 67.4718 220 72.8444 220 79.4718V184.477C220 188.895 216.418 192.477 212 192.477H44C39.5817 192.477 36 188.895 36 184.477V60.4766C36 53.8491 41.3726 48.4766 48 48.4766H100.236Z" fill="#5AB0FF" fill-opacity="0.5"/>
<path d="M36 96.4766C36 92.0583 39.5817 88.4766 44 88.4766H212C216.418 88.4766 220 92.0583 220 96.4766V184.477C220 188.895 216.418 192.477 212 192.477H44C39.5817 192.477 36 188.895 36 184.477V96.4766Z" fill="#5AB0FF" fill-opacity="0.8"/>
</svg>
