<svg width="420" height="200" viewBox="0 0 420 200" fill="none" xmlns="http://www.w3.org/2000/svg">
<g clip-path="url(#clip0)">
<path fill-rule="evenodd" clip-rule="evenodd" d="M49.4709 252.302L49.5395 252.3C61.715 251.985 99.3708 251.265 135.178 253.157C153.087 254.103 170.496 255.701 184.014 258.319C190.776 259.629 196.522 261.186 200.856 263.026C205.24 264.886 207.967 266.947 209.006 269.132C209.25 269.646 209.74 269.785 210.117 269.748V273.665C210.112 273.772 209.959 273.82 209.911 273.722C209.905 273.71 209.899 273.697 209.893 273.685C209.889 273.677 209.885 273.668 209.88 273.66C209.76 273.421 209.624 273.185 209.471 272.952C209.361 272.786 209.243 272.621 209.117 272.458C194.479 253.512 68.5246 255.682 43.8242 256.301L42.9242 256.204C41.0242 255.999 39.6172 254.814 39.6172 253.417V68.2138C39.6172 66.7074 41.1753 65.4719 43.2463 65.4187C43.6209 65.4091 44.0226 65.399 44.4505 65.3886V248.417C44.4505 250.528 46.4266 251.963 48.5336 252.198L49.4709 252.302ZM44.4505 64.3883V63.2137C44.4505 60.9544 46.6259 59.4802 48.9289 59.419C60.8524 59.1021 101.177 58.2818 138.532 60.4419C157.201 61.5214 175.179 63.3479 188.509 66.3689C195.165 67.8774 200.734 69.699 204.661 71.9152C208.55 74.1092 211.117 76.8631 211.117 80.323V85.3231V268.642V273.66C211.117 273.665 211.117 273.671 211.117 273.676V279.676C211.117 280.247 210.714 280.616 210.343 280.737C209.954 280.863 209.32 280.788 209.019 280.187C207.925 278.001 205.014 275.928 200.321 274.058C195.685 272.211 189.537 270.649 182.303 269.336C167.844 266.71 149.211 265.109 130.045 264.16C91.7209 262.264 51.401 262.984 38.3698 263.3L38.3057 263.302L37.3123 263.198C36.1661 263.079 35.1206 262.669 34.3399 262.032C33.5583 261.395 33 260.485 33 259.417V74.2137C33 73.0777 33.6105 72.1194 34.471 71.4721C35.3296 70.8262 36.4756 70.45 37.7238 70.419C38.0068 70.4119 38.3047 70.4046 38.6172 70.3972V68.2138C38.6172 65.9276 40.881 64.4791 43.2206 64.419C43.6027 64.4092 44.013 64.399 44.4505 64.3883ZM45.4505 64.3644V65.3647V248.417C45.4505 249.814 46.8094 250.999 48.6444 251.204L49.5135 251.301C73.3497 250.683 194.819 248.515 209.117 267.412C209.246 267.583 209.366 267.755 209.478 267.929C209.628 268.163 209.762 268.401 209.88 268.642C209.89 268.662 209.899 268.682 209.909 268.702C209.956 268.801 210.112 268.755 210.117 268.647V87.8469L210.117 87.847V81.8007V80.323C210.118 57.1414 72.7899 59.7852 48.9554 60.4187C46.9553 60.4718 45.4505 61.7073 45.4505 63.2137V64.3644ZM38.6172 71.3974C38.3137 71.4047 38.0241 71.4118 37.7487 71.4186C35.6094 71.4718 34 72.7073 34 74.2137V259.417C34 260.814 35.4534 261.999 37.416 262.204L38.3456 262.301C63.8784 261.682 194.154 259.509 209.117 278.499C209.241 278.656 209.356 278.814 209.464 278.974C209.62 279.204 209.759 279.438 209.881 279.676C209.886 279.686 209.891 279.696 209.896 279.707C209.902 279.718 209.908 279.729 209.913 279.74C209.962 279.838 210.117 279.786 210.117 279.676V274.767C209.74 274.804 209.259 274.665 209.013 274.161C207.946 271.976 205.125 269.908 200.584 268.043C196.096 266.2 190.145 264.64 183.143 263.328C169.145 260.706 151.113 259.106 132.563 258.159C95.4737 256.264 56.4606 256.985 43.8492 257.3L43.783 257.302L42.8172 257.198C40.675 256.967 38.6172 255.553 38.6172 253.417V71.3974Z" fill="#595959"/>
<path fill-rule="evenodd" clip-rule="evenodd" d="M371.646 252.302L371.578 252.3C359.402 251.985 321.746 251.265 285.939 253.157C268.03 254.103 250.621 255.701 237.103 258.319C230.341 259.629 224.595 261.186 220.261 263.026C215.878 264.886 213.15 266.947 212.111 269.132C211.867 269.646 211.378 269.785 211 269.748V273.665C211.005 273.772 211.158 273.82 211.206 273.722C211.212 273.71 211.218 273.697 211.224 273.685C211.228 273.677 211.233 273.668 211.237 273.66C211.357 273.421 211.493 273.185 211.647 272.952C211.756 272.786 211.874 272.621 212 272.458C226.638 253.512 352.593 255.682 377.293 256.301L378.193 256.204C380.093 255.999 381.5 254.814 381.5 253.417V68.2138C381.5 66.7074 379.942 65.4719 377.871 65.4187C377.496 65.4091 377.095 65.399 376.667 65.3886V248.417C376.667 250.528 374.691 251.963 372.584 252.198L371.646 252.302ZM376.667 64.3883V63.2137C376.667 60.9544 374.491 59.4802 372.188 59.419C360.265 59.1021 319.94 58.2818 282.585 60.4419C263.916 61.5214 245.938 63.3479 232.609 66.3689C225.952 67.8774 220.384 69.699 216.456 71.9152C212.567 74.1092 210 76.8631 210 80.323V85.3231V268.642V273.66C210 273.665 210 273.671 210 273.676V279.676C210 280.247 210.403 280.616 210.774 280.737C211.163 280.863 211.798 280.788 212.098 280.187C213.192 278.001 216.103 275.928 220.797 274.058C225.432 272.211 231.58 270.649 238.814 269.336C253.273 266.71 271.906 265.109 291.073 264.16C329.396 262.264 369.716 262.984 382.747 263.3L382.812 263.302L383.805 263.198C384.951 263.079 385.997 262.669 386.777 262.032C387.559 261.395 388.117 260.485 388.117 259.417V74.2137C388.117 73.0777 387.507 72.1194 386.646 71.4721C385.788 70.8262 384.642 70.45 383.393 70.419C383.11 70.4119 382.812 70.4046 382.5 70.3972V68.2138C382.5 65.9276 380.236 64.4791 377.897 64.419C377.514 64.4092 377.104 64.399 376.667 64.3883ZM375.667 64.3644V65.3647V248.417C375.667 249.814 374.308 250.999 372.473 251.204L371.604 251.301C347.767 250.683 226.298 248.515 212 267.412C211.871 267.583 211.751 267.755 211.639 267.929C211.489 268.163 211.355 268.401 211.237 268.642C211.228 268.662 211.218 268.682 211.208 268.702C211.161 268.801 211.005 268.755 211 268.647V87.8469L211 87.847V81.8007V80.323C211 57.1414 348.327 59.7852 372.162 60.4187C374.162 60.4718 375.667 61.7073 375.667 63.2137V64.3644ZM382.5 71.3974C382.803 71.4047 383.093 71.4118 383.369 71.4186C385.508 71.4718 387.117 72.7073 387.117 74.2137V259.417C387.117 260.814 385.664 261.999 383.701 262.204L382.772 262.301C357.239 261.682 226.963 259.509 212 278.499C211.877 278.656 211.761 278.814 211.653 278.974C211.498 279.204 211.359 279.438 211.237 279.676C211.231 279.686 211.226 279.696 211.221 279.707C211.215 279.718 211.21 279.729 211.204 279.74C211.155 279.838 211 279.786 211 279.676V274.767C211.377 274.804 211.859 274.665 212.105 274.161C213.172 271.976 215.992 269.908 220.534 268.043C225.021 266.2 230.972 264.64 237.974 263.328C251.972 260.706 270.005 259.106 288.554 258.159C325.643 256.264 364.657 256.985 377.268 257.3L377.334 257.302L378.3 257.198C380.442 256.967 382.5 255.553 382.5 253.417V71.3974Z" fill="#595959"/>
<path d="M116.872 83.9261C117.189 82.3126 119.497 82.3125 119.815 83.9261L121.815 94.0794C121.987 94.954 122.612 95.6708 123.455 95.9606L132.945 99.2236C134.295 99.6877 134.295 101.597 132.945 102.061L123.455 105.324C122.612 105.614 121.987 106.33 121.815 107.205L119.815 117.358C119.497 118.972 117.189 118.972 116.872 117.358L114.872 107.205C114.7 106.33 114.075 105.614 113.232 105.324L103.742 102.061C102.392 101.597 102.392 99.6877 103.742 99.2236L113.232 95.9606C114.075 95.6708 114.7 94.954 114.872 94.0794L116.872 83.9261Z" stroke="#595959"/>
<path d="M75.5554 130.128C75.7165 129.693 76.3322 129.693 76.4933 130.128L78.0608 134.364C78.2127 134.775 78.5364 135.099 78.947 135.25L83.1832 136.818C83.6185 136.979 83.6185 137.595 83.1832 137.756L78.947 139.323C78.5364 139.475 78.2127 139.799 78.0608 140.21L76.4933 144.446C76.3322 144.881 75.7165 144.881 75.5554 144.446L73.9879 140.21C73.836 139.799 73.5122 139.475 73.1017 139.323L68.8655 137.756C68.4302 137.595 68.4302 136.979 68.8655 136.818L73.1017 135.25C73.5122 135.099 73.836 134.775 73.9879 134.364L75.5554 130.128Z" stroke="#595959"/>
<path d="M336.611 22.1114C336.759 21.6489 337.414 21.6489 337.563 22.1114L339.136 26.9998C339.269 27.4141 339.576 27.7501 339.976 27.9206L344.595 29.886C345.001 30.0586 345.001 30.6335 344.595 30.8061L339.976 32.7715C339.576 32.9419 339.269 33.2779 339.136 33.6923L337.563 38.5807C337.414 39.0432 336.759 39.0432 336.611 38.5807L335.038 33.6923C334.904 33.2779 334.597 32.9419 334.197 32.7715L329.578 30.8061C329.172 30.6335 329.172 30.0586 329.578 29.886L334.197 27.9206C334.597 27.7501 334.904 27.4141 335.038 26.9998L336.611 22.1114Z" stroke="#595959"/>
<line x1="0.5" y1="-0.5" x2="52.4601" y2="-0.5" transform="matrix(1.35416e-05 1 -1 8.70508e-06 228.87 152.492)" stroke="#595959" stroke-linecap="round"/>
<line x1="0.5" y1="-0.5" x2="52.4601" y2="-0.5" transform="matrix(1.49822e-05 1 -1 7.86805e-06 313.502 182.492)" stroke="#595959" stroke-linecap="round"/>
<line x1="0.5" y1="-0.5" x2="52.4601" y2="-0.5" transform="matrix(1.52703e-05 1 -1 7.7196e-06 240.961 166.675)" stroke="#595959" stroke-linecap="round"/>
<line x1="0.5" y1="-0.5" x2="52.4601" y2="-0.5" transform="matrix(1.49822e-05 1 -1 7.86805e-06 325.592 152.492)" stroke="#595959" stroke-linecap="round"/>
<line x1="0.5" y1="-0.5" x2="52.4601" y2="-0.5" transform="matrix(1.52703e-05 1 -1 7.7196e-06 253.051 166.675)" stroke="#595959" stroke-linecap="round"/>
<line x1="0.5" y1="-0.5" x2="52.4601" y2="-0.5" transform="matrix(1.49822e-05 1 -1 7.86805e-06 337.683 162.492)" stroke="#595959" stroke-linecap="round"/>
<line x1="277.732" y1="137.92" x2="277.732" y2="204.952" stroke="#595959" stroke-linecap="round"/>
<line x1="0.5" y1="-0.5" x2="52.4601" y2="-0.5" transform="matrix(1.55584e-05 1 -1 7.57664e-06 265.141 154.492)" stroke="#595959" stroke-linecap="round"/>
<line x1="0.5" y1="-0.5" x2="52.4601" y2="-0.5" transform="matrix(1.55584e-05 1 -1 7.57664e-06 289.321 152.492)" stroke="#595959" stroke-linecap="round"/>
<line x1="0.5" y1="-0.5" x2="52.4601" y2="-0.5" transform="matrix(1.49822e-05 1 -1 7.86805e-06 349.772 172.492)" stroke="#595959" stroke-linecap="round"/>
<line x1="0.5" y1="-0.5" x2="52.4601" y2="-0.5" transform="matrix(1.49822e-05 1 -1 7.86805e-06 301.412 170.492)" stroke="#595959" stroke-linecap="round"/>
<line x1="0.5" y1="-0.5" x2="52.4601" y2="-0.5" transform="matrix(1.49822e-05 1 -1 7.86805e-06 361.863 152.492)" stroke="#595959" stroke-linecap="round"/>
<line x1="0.5" y1="-0.5" x2="52.4601" y2="-0.5" transform="matrix(-1.32534e-05 -1 1 -8.74845e-06 191.602 220.38)" stroke="#595959" stroke-linecap="round"/>
<line x1="0.5" y1="-0.5" x2="52.4601" y2="-0.5" transform="matrix(-1.51262e-05 -1 1 -7.66083e-06 106.97 230.38)" stroke="#595959" stroke-linecap="round"/>
<line x1="0.5" y1="-0.5" x2="52.4601" y2="-0.5" transform="matrix(-1.52703e-05 -1 1 -7.58856e-06 179.512 206.198)" stroke="#595959" stroke-linecap="round"/>
<line x1="0.5" y1="-0.5" x2="52.4601" y2="-0.5" transform="matrix(-1.51262e-05 -1 1 -7.66083e-06 94.8801 220.38)" stroke="#595959" stroke-linecap="round"/>
<line x1="0.5" y1="-0.5" x2="70.5393" y2="-0.5" transform="matrix(-1.52503e-05 -1 1 -7.59848e-06 167.422 206.198)" stroke="#595959" stroke-linecap="round"/>
<line x1="0.5" y1="-0.5" x2="52.4601" y2="-0.5" transform="matrix(-1.51262e-05 -1 1 -7.66083e-06 82.7898 246.38)" stroke="#595959" stroke-linecap="round"/>
<line x1="142.74" y1="234.952" x2="142.74" y2="167.92" stroke="#595959" stroke-linecap="round"/>
<line x1="0.5" y1="-0.5" x2="52.4601" y2="-0.5" transform="matrix(-1.52703e-05 -1 1 -7.58856e-06 155.331 218.38)" stroke="#595959" stroke-linecap="round"/>
<line x1="0.5" y1="-0.5" x2="52.4601" y2="-0.5" transform="matrix(-1.52703e-05 -1 1 -7.58856e-06 131.151 220.38)" stroke="#595959" stroke-linecap="round"/>
<line x1="0.5" y1="-0.5" x2="52.4601" y2="-0.5" transform="matrix(-1.52703e-05 -1 1 -7.58856e-06 70.6997 230.38)" stroke="#595959" stroke-linecap="round"/>
<line x1="0.5" y1="-0.5" x2="52.4601" y2="-0.5" transform="matrix(-1.51262e-05 -1 1 -7.66083e-06 119.061 202.38)" stroke="#595959" stroke-linecap="round"/>
<line x1="0.5" y1="-0.5" x2="52.4601" y2="-0.5" transform="matrix(-1.52703e-05 -1 1 -7.58856e-06 58.6094 220.38)" stroke="#595959" stroke-linecap="round"/>
</g>
<defs>
<clipPath id="clip0">
<rect width="420" height="200" fill="white"/>
</clipPath>
</defs>
</svg>
