<svg width="32" height="32" viewBox="0 0 32 32" fill="none" xmlns="http://www.w3.org/2000/svg">
<path d="M27 27.5V3.5C27 3.22386 26.7761 3 26.5 3H11.8284C11.298 3 10.7893 3.21071 10.4142 3.58579L5.58579 8.41421C5.21071 8.78929 5 9.29799 5 9.82843V27.5C5 27.7761 5.22386 28 5.5 28H26.5C26.7761 28 27 27.7761 27 27.5Z" fill="#5AB0FF" fill-opacity="0.2"/>
<path d="M15.9881 12.8708H16.0119C19.0709 12.8708 21.5507 15.4205 21.5507 18.5654C21.5507 18.7349 21.5477 18.9014 21.542 19.0648L21.6884 19.1046C22.2704 19.2628 22.6174 19.8761 22.4635 20.4744L21.8046 23.0364C21.6507 23.6347 21.0542 23.9915 20.4722 23.8334L19.7201 23.6289C19.4844 23.5647 19.345 23.3161 19.411 23.0748C19.6983 22.0231 20.4059 19.4087 20.4538 18.991C20.457 18.9635 20.4589 18.9384 20.46 18.9147C20.4631 18.8446 20.459 18.7875 20.4598 18.7189C20.4604 18.668 20.4608 18.6169 20.4608 18.5654C20.4608 16.0393 18.4689 13.9915 16.0119 13.9915H15.9881C13.5311 13.9915 11.5392 16.0393 11.5392 18.5654C11.5392 18.6169 11.5396 18.668 11.5402 18.7189C11.5405 18.7467 11.54 18.7727 11.5396 18.7984C11.5384 18.8574 11.5374 18.9151 11.5462 18.991C11.5941 19.4087 12.3017 22.0231 12.589 23.0748C12.655 23.3161 12.5156 23.5647 12.2799 23.6289L11.5278 23.8334C10.9458 23.9915 10.3493 23.6347 10.1954 23.0364L9.53651 20.4744C9.38256 19.8761 9.72963 19.2628 10.3116 19.1046L10.458 19.0648C10.4551 18.981 10.4529 18.8966 10.4514 18.8113C10.45 18.73 10.4493 18.6481 10.4493 18.5654C10.4493 15.4205 12.9291 12.8708 15.9881 12.8708Z" fill="#5AB0FF"/>
<path d="M11 9V3L5 9H11Z" fill="#5AB0FF" fill-opacity="0.5"/>
</svg>
