<svg width="32" height="32" viewBox="0 0 32 32" fill="none" xmlns="http://www.w3.org/2000/svg">
<path d="M12.5295 6C13.358 6 14.0295 6.67157 14.0295 7.5V7.8744C14.0295 8.15055 14.2534 8.3744 14.5295 8.3744H26C26.8284 8.3744 27.5 9.04598 27.5 9.8744V23C27.5 23.5523 27.0523 24 26.5 24H5.5C4.94772 24 4.5 23.5523 4.5 23V7.5C4.5 6.67157 5.17157 6 6 6H12.5295Z" fill="#5AB0FF" fill-opacity="0.5"/>
<path d="M4.5 12C4.5 11.4477 4.94772 11 5.5 11H26.5C27.0523 11 27.5 11.4477 27.5 12V23C27.5 23.5523 27.0523 24 26.5 24H5.5C4.94772 24 4.5 23.5523 4.5 23V12Z" fill="#5AB0FF" fill-opacity="0.8"/>
</svg>
